<svg width="396" height="91" viewBox="0 0 396 91" fill="none" xmlns="http://www.w3.org/2000/svg">
<path d="M33.6406 62L24.5234 47.6562H20.375V62H17.3516V28.3906H28.0156C29.1562 28.3906 30.2266 28.6094 31.2266 29.0469C32.2266 29.4688 33.1016 30.0547 33.8516 30.8047C34.6016 31.5547 35.1875 32.4375 35.6094 33.4531C36.0469 34.4531 36.2656 35.5234 36.2656 36.6641V39.3828C36.2656 40.5234 36.0469 41.6016 35.6094 42.6172C35.1875 43.6172 34.6016 44.4922 33.8516 45.2422C33.1016 45.9922 32.2266 46.5859 31.2266 47.0234C30.2266 47.4453 29.1562 47.6562 28.0156 47.6562L37.1328 62H33.6406ZM33.2422 36.6641C33.2422 35.9141 33.1016 35.2188 32.8203 34.5781C32.5391 33.9219 32.1562 33.3516 31.6719 32.8672C31.1875 32.3672 30.6172 31.9766 29.9609 31.6953C29.3203 31.4141 28.625 31.2734 27.875 31.2734H20.375V44.7734H27.875C28.625 44.7734 29.3203 44.6328 29.9609 44.3516C30.6172 44.0703 31.1875 43.6875 31.6719 43.2031C32.1562 42.7031 32.5391 42.1328 32.8203 41.4922C33.1016 40.8359 33.2422 40.1328 33.2422 39.3828V36.6641ZM61.3438 54.2188C61.3438 55.3594 61.125 56.4297 60.6875 57.4297C60.2656 58.4297 59.6797 59.3047 58.9297 60.0547C58.1797 60.8047 57.3047 61.3984 56.3047 61.8359C55.3047 62.2578 54.2344 62.4688 53.0938 62.4688H50.7031C49.5625 62.4688 48.4844 62.2578 47.4688 61.8359C46.4688 61.3984 45.5938 60.8047 44.8438 60.0547C44.0938 59.3047 43.5 58.4297 43.0625 57.4297C42.6406 56.4297 42.4297 55.3594 42.4297 54.2188V36.1719C42.4297 35.0312 42.6406 33.9609 43.0625 32.9609C43.5 31.9609 44.0938 31.0859 44.8438 30.3359C45.5938 29.5859 46.4688 29 47.4688 28.5781C48.4844 28.1406 49.5625 27.9219 50.7031 27.9219H53.0938C54.2344 27.9219 55.3047 28.1406 56.3047 28.5781C57.3047 29 58.1797 29.5859 58.9297 30.3359C59.6797 31.0859 60.2656 31.9609 60.6875 32.9609C61.125 33.9609 61.3438 35.0312 61.3438 36.1719V54.2188ZM58.3203 36.1719C58.3203 35.4219 58.1797 34.7266 57.8984 34.0859C57.6172 33.4297 57.2344 32.8594 56.75 32.375C56.2656 31.8906 55.6953 31.5078 55.0391 31.2266C54.3984 30.9453 53.7031 30.8047 52.9531 30.8047H50.8438C50.0938 30.8047 49.3906 30.9453 48.7344 31.2266C48.0938 31.5078 47.5234 31.8906 47.0234 32.375C46.5391 32.8594 46.1562 33.4297 45.875 34.0859C45.5938 34.7266 45.4531 35.4219 45.4531 36.1719V54.2188C45.4531 54.9688 45.5938 55.6719 45.875 56.3281C46.1562 56.9688 46.5391 57.5391 47.0234 58.0391C47.5234 58.5234 48.0938 58.9062 48.7344 59.1875C49.3906 59.4688 50.0938 59.6094 50.8438 59.6094H52.9531C53.7031 59.6094 54.3984 59.4688 55.0391 59.1875C55.6953 58.9062 56.2656 58.5234 56.75 58.0391C57.2344 57.5391 57.6172 56.9688 57.8984 56.3281C58.1797 55.6719 58.3203 54.9688 58.3203 54.2188V36.1719ZM76.4141 45.9219V62H73.3906V45.9688L64.6953 28.3906H67.9531L74.8672 42.3594L81.7812 28.3906H85.0391L76.4141 45.9219Z" fill="#FF3300"/>
<path d="M33.6406 62L32.7967 62.5364L33.0913 63H33.6406V62ZM24.5234 47.6562L25.3674 47.1198L25.0727 46.6562H24.5234V47.6562ZM20.375 47.6562V46.6562H19.375V47.6562H20.375ZM20.375 62V63H21.375V62H20.375ZM17.3516 62H16.3516V63H17.3516V62ZM17.3516 28.3906V27.3906H16.3516V28.3906H17.3516ZM31.2266 29.0469L30.8257 29.9631L30.8379 29.9682L31.2266 29.0469ZM35.6094 33.4531L34.6859 33.8367L34.6895 33.8454L34.6932 33.8539L35.6094 33.4531ZM35.6094 42.6172L34.6909 42.2216L34.688 42.2285L35.6094 42.6172ZM31.2266 47.0234L31.6153 47.9449L31.6274 47.9396L31.2266 47.0234ZM28.0156 47.6562V46.6562H26.1951L27.1717 48.1927L28.0156 47.6562ZM37.1328 62V63H38.9533L37.9768 61.4636L37.1328 62ZM32.8203 34.5781L31.9011 34.9721L31.9047 34.9801L32.8203 34.5781ZM31.6719 32.8672L30.9536 33.563L30.9592 33.5687L30.9648 33.5743L31.6719 32.8672ZM29.9609 31.6953L29.5589 32.611L29.567 32.6145L29.9609 31.6953ZM20.375 31.2734V30.2734H19.375V31.2734H20.375ZM20.375 44.7734H19.375V45.7734H20.375V44.7734ZM29.9609 44.3516L29.567 43.4324L29.5589 43.4359L29.9609 44.3516ZM31.6719 43.2031L32.379 43.9102L32.3846 43.9046L32.3901 43.8989L31.6719 43.2031ZM32.8203 41.4922L33.736 41.8942L33.7395 41.8861L32.8203 41.4922ZM34.4846 61.4636L25.3674 47.1198L23.6795 48.1927L32.7967 62.5364L34.4846 61.4636ZM24.5234 46.6562H20.375V48.6562H24.5234V46.6562ZM19.375 47.6562V62H21.375V47.6562H19.375ZM20.375 61H17.3516V63H20.375V61ZM18.3516 62V28.3906H16.3516V62H18.3516ZM17.3516 29.3906H28.0156V27.3906H17.3516V29.3906ZM28.0156 29.3906C29.0246 29.3906 29.9578 29.5833 30.8257 29.963L31.6274 28.1307C30.4953 27.6354 29.2879 27.3906 28.0156 27.3906V29.3906ZM30.8379 29.9682C31.7217 30.3411 32.4879 30.8552 33.1445 31.5118L34.5587 30.0976C33.7152 29.2541 32.7314 28.5964 31.6153 28.1255L30.8379 29.9682ZM33.1445 31.5118C33.7984 32.1658 34.3124 32.9375 34.6859 33.8367L36.5329 33.0695C36.0626 31.9375 35.4047 30.9436 34.5587 30.0976L33.1445 31.5118ZM34.6932 33.8539C35.0729 34.7219 35.2656 35.6551 35.2656 36.6641H37.2656C37.2656 35.3918 37.0208 34.1844 36.5255 33.0523L34.6932 33.8539ZM35.2656 36.6641V39.3828H37.2656V36.6641H35.2656ZM35.2656 39.3828C35.2656 40.3918 35.0729 41.3349 34.691 42.2216L36.5278 43.0128C37.0208 41.8683 37.2656 40.6551 37.2656 39.3828H35.2656ZM34.688 42.2285C34.3151 43.1123 33.801 43.8785 33.1445 44.5351L34.5587 45.9493C35.4021 45.1058 36.0599 44.122 36.5307 43.0059L34.688 42.2285ZM33.1445 44.5351C32.4852 45.1943 31.7149 45.7183 30.8257 46.1073L31.6274 47.9396C32.7382 47.4536 33.7179 46.79 34.5587 45.9493L33.1445 44.5351ZM30.8379 46.1021C29.9671 46.4694 29.0297 46.6562 28.0156 46.6562V48.6562C29.2828 48.6562 30.486 48.4212 31.6153 47.9448L30.8379 46.1021ZM27.1717 48.1927L36.2889 62.5364L37.9768 61.4636L28.8596 47.1198L27.1717 48.1927ZM37.1328 61H33.6406V63H37.1328V61ZM34.2422 36.6641C34.2422 35.7858 34.0768 34.9524 33.736 34.1761L31.9047 34.9801C32.1264 35.4851 32.2422 36.0423 32.2422 36.6641H34.2422ZM33.7395 34.1842C33.4102 33.4161 32.9571 32.7382 32.379 32.1601L30.9648 33.5743C31.3554 33.9649 31.6679 34.4277 31.9012 34.972L33.7395 34.1842ZM32.3901 32.1714C31.8111 31.5737 31.1298 31.1083 30.3549 30.7762L29.567 32.6145C30.1046 32.8449 30.5639 33.1607 30.9536 33.563L32.3901 32.1714ZM30.3629 30.7797C29.5867 30.4389 28.7533 30.2734 27.875 30.2734V32.2734C28.4967 32.2734 29.054 32.3893 29.5589 32.611L30.3629 30.7797ZM27.875 30.2734H20.375V32.2734H27.875V30.2734ZM19.375 31.2734V44.7734H21.375V31.2734H19.375ZM20.375 45.7734H27.875V43.7734H20.375V45.7734ZM27.875 45.7734C28.7533 45.7734 29.5867 45.608 30.3629 45.2672L29.5589 43.4359C29.054 43.6576 28.4967 43.7734 27.875 43.7734V45.7734ZM30.3549 45.2707C31.123 44.9415 31.8009 44.4884 32.379 43.9102L30.9648 42.496C30.5741 42.8866 30.1114 43.1991 29.567 43.4324L30.3549 45.2707ZM32.3901 43.8989C32.9577 43.3131 33.4071 42.6431 33.736 41.8942L31.9047 41.0902C31.671 41.6225 31.3548 42.0932 30.9536 42.5073L32.3901 43.8989ZM33.7395 41.8861C34.0767 41.0991 34.2422 40.2613 34.2422 39.3828H32.2422C32.2422 40.0043 32.1264 40.5727 31.9012 41.0983L33.7395 41.8861ZM34.2422 39.3828V36.6641H32.2422V39.3828H34.2422ZM60.6875 57.4297L59.7713 57.0288L59.7661 57.041L60.6875 57.4297ZM56.3047 61.8359L56.6934 62.7574L56.7055 62.7521L56.3047 61.8359ZM47.4688 61.8359L47.0679 62.7521L47.0765 62.7558L47.0851 62.7594L47.4688 61.8359ZM43.0625 57.4297L42.1411 57.8184L42.1463 57.8305L43.0625 57.4297ZM43.0625 32.9609L42.1463 32.5601L42.1411 32.5722L43.0625 32.9609ZM47.4688 28.5781L47.8575 29.4995L47.8644 29.4965L47.4688 28.5781ZM56.3047 28.5781L55.9038 29.4944L55.916 29.4995L56.3047 28.5781ZM60.6875 32.9609L59.7661 33.3497L59.7713 33.3618L60.6875 32.9609ZM57.8984 34.0859L56.9793 34.4799L56.9828 34.4879L57.8984 34.0859ZM55.0391 31.2266L54.6371 32.1422L54.6451 32.1457L55.0391 31.2266ZM48.7344 31.2266L48.3404 30.3074L48.3324 30.3109L48.7344 31.2266ZM47.0234 32.375L46.3276 31.6568L46.3219 31.6623L46.3163 31.6679L47.0234 32.375ZM45.875 34.0859L46.7907 34.4879L46.7941 34.4799L45.875 34.0859ZM45.875 56.3281L44.9558 56.7221L44.9594 56.7301L45.875 56.3281ZM47.0234 58.0391L46.3052 58.7349L46.3162 58.7463L46.3276 58.7573L47.0234 58.0391ZM48.7344 59.1875L48.3324 60.1032L48.3405 60.1066L48.7344 59.1875ZM55.0391 59.1875L54.6451 58.2683L54.6371 58.2719L55.0391 59.1875ZM56.75 58.0391L57.4571 58.7462L57.4627 58.7406L57.4682 58.7349L56.75 58.0391ZM57.8984 56.3281L58.8141 56.7301L58.8176 56.722L57.8984 56.3281ZM60.3438 54.2188C60.3438 55.2278 60.1511 56.1609 59.7713 57.0289L61.6037 57.8305C62.0989 56.6984 62.3438 55.491 62.3438 54.2188H60.3438ZM59.7661 57.041C59.3933 57.9248 58.8791 58.691 58.2226 59.3476L59.6368 60.7618C60.4802 59.9183 61.138 58.9345 61.6089 57.8184L59.7661 57.041ZM58.2226 59.3476C57.5633 60.0068 56.793 60.5308 55.9039 60.9198L56.7055 62.7521C57.8164 62.2661 58.796 61.6025 59.6368 60.7618L58.2226 59.3476ZM55.916 60.9146C55.0452 61.2819 54.1078 61.4688 53.0938 61.4688V63.4688C54.361 63.4688 55.5642 63.2337 56.6934 62.7573L55.916 60.9146ZM53.0938 61.4688H50.7031V63.4688H53.0938V61.4688ZM50.7031 61.4688C49.6892 61.4688 48.7419 61.2819 47.8524 60.9124L47.0851 62.7594C48.2269 63.2337 49.4358 63.4688 50.7031 63.4688V61.4688ZM47.8696 60.9198C46.9804 60.5308 46.2101 60.0068 45.5509 59.3476L44.1366 60.7618C44.9774 61.6025 45.9571 62.2661 47.0679 62.7521L47.8696 60.9198ZM45.5509 59.3476C44.8916 58.6883 44.3677 57.918 43.9787 57.0289L42.1463 57.8305C42.6323 58.9414 43.2959 59.921 44.1366 60.7618L45.5509 59.3476ZM43.9839 57.041C43.6165 56.1702 43.4297 55.2328 43.4297 54.2188H41.4297C41.4297 55.486 41.6647 56.6892 42.1411 57.8184L43.9839 57.041ZM43.4297 54.2188V36.1719H41.4297V54.2188H43.4297ZM43.4297 36.1719C43.4297 35.1578 43.6165 34.2204 43.9839 33.3496L42.1411 32.5722C41.6647 33.7015 41.4297 34.9047 41.4297 36.1719H43.4297ZM43.9787 33.3618C44.3677 32.4726 44.8916 31.7023 45.5509 31.043L44.1366 29.6288C43.2959 30.4696 42.6323 31.4493 42.1463 32.5601L43.9787 33.3618ZM45.5509 31.043C46.2074 30.3865 46.9736 29.8724 47.8575 29.4995L47.08 27.6568C45.9639 28.1276 44.9801 28.7854 44.1366 29.6288L45.5509 31.043ZM47.8644 29.4965C48.7511 29.1146 49.6942 28.9219 50.7031 28.9219V26.9219C49.4308 26.9219 48.2177 27.1667 47.0731 27.6597L47.8644 29.4965ZM50.7031 28.9219H53.0938V26.9219H50.7031V28.9219ZM53.0938 28.9219C54.1028 28.9219 55.0359 29.1146 55.9039 29.4943L56.7055 27.662C55.5734 27.1667 54.366 26.9219 53.0938 26.9219V28.9219ZM55.916 29.4995C56.7998 29.8724 57.566 30.3865 58.2226 31.043L59.6368 29.6288C58.7933 28.7854 57.8095 28.1276 56.6934 27.6568L55.916 29.4995ZM58.2226 31.043C58.8791 31.6996 59.3933 32.4658 59.7661 33.3496L61.6089 32.5722C61.138 31.4561 60.4802 30.4723 59.6368 29.6288L58.2226 31.043ZM59.7713 33.3618C60.1511 34.2297 60.3438 35.1629 60.3438 36.1719H62.3438C62.3438 34.8996 62.0989 33.6922 61.6037 32.5601L59.7713 33.3618ZM60.3438 36.1719V54.2188H62.3438V36.1719H60.3438ZM59.3203 36.1719C59.3203 35.2936 59.1549 34.4602 58.8141 33.6839L56.9828 34.4879C57.2045 34.9929 57.3203 35.5502 57.3203 36.1719H59.3203ZM58.8176 33.692C58.4884 32.9239 58.0352 32.246 57.4571 31.6679L56.0429 33.0821C56.4335 33.4727 56.746 33.9355 56.9793 34.4799L58.8176 33.692ZM57.4571 31.6679C56.879 31.0898 56.2011 30.6366 55.433 30.3074L54.6451 32.1457C55.1895 32.379 55.6523 32.6915 56.0429 33.0821L57.4571 31.6679ZM55.4411 30.3109C54.6648 29.9701 53.8314 29.8047 52.9531 29.8047V31.8047C53.5748 31.8047 54.1321 31.9205 54.6371 32.1422L55.4411 30.3109ZM52.9531 29.8047H50.8438V31.8047H52.9531V29.8047ZM50.8438 29.8047C49.9653 29.8047 49.1274 29.9701 48.3405 30.3074L49.1283 32.1457C49.6538 31.9205 50.2222 31.8047 50.8438 31.8047V29.8047ZM48.3324 30.3109C47.5834 30.6397 46.9135 31.0892 46.3276 31.6568L47.7192 33.0932C48.1334 32.692 48.6041 32.3759 49.1364 32.1422L48.3324 30.3109ZM46.3163 31.6679C45.7382 32.246 45.2851 32.9239 44.9559 33.692L46.7941 34.4799C47.0274 33.9355 47.3399 33.4727 47.7305 33.0821L46.3163 31.6679ZM44.9594 33.6839C44.6186 34.4602 44.4531 35.2936 44.4531 36.1719H46.4531C46.4531 35.5502 46.5689 34.9929 46.7906 34.4879L44.9594 33.6839ZM44.4531 36.1719V54.2188H46.4531V36.1719H44.4531ZM44.4531 54.2188C44.4531 55.0972 44.6186 55.9351 44.9559 56.722L46.7941 55.9342C46.5689 55.4087 46.4531 54.8403 46.4531 54.2188H44.4531ZM44.9594 56.7301C45.2882 57.4791 45.7376 58.149 46.3052 58.7349L47.7417 57.3433C47.3405 56.9291 47.0243 56.4584 46.7906 55.9261L44.9594 56.7301ZM46.3276 58.7573C46.9135 59.3249 47.5834 59.7743 48.3324 60.1031L49.1364 58.2719C48.6041 58.0382 48.1334 57.722 47.7192 57.3208L46.3276 58.7573ZM48.3405 60.1066C49.1274 60.4439 49.9653 60.6094 50.8438 60.6094V58.6094C50.2222 58.6094 49.6538 58.4936 49.1283 58.2684L48.3405 60.1066ZM50.8438 60.6094H52.9531V58.6094H50.8438V60.6094ZM52.9531 60.6094C53.8314 60.6094 54.6648 60.4439 55.4411 60.1031L54.6371 58.2719C54.1321 58.4936 53.5748 58.6094 52.9531 58.6094V60.6094ZM55.433 60.1066C56.2011 59.7774 56.879 59.3243 57.4571 58.7462L56.0429 57.332C55.6523 57.7226 55.1895 58.0351 54.6451 58.2684L55.433 60.1066ZM57.4682 58.7349C58.0358 58.149 58.4853 57.4791 58.8141 56.7301L56.9828 55.9261C56.7491 56.4584 56.433 56.9291 56.0318 57.3433L57.4682 58.7349ZM58.8176 56.722C59.1549 55.9351 59.3203 55.0972 59.3203 54.2188H57.3203C57.3203 54.8403 57.2045 55.4087 56.9793 55.9342L58.8176 56.722ZM59.3203 54.2188V36.1719H57.3203V54.2188H59.3203ZM76.4141 45.9219L75.5168 45.4804L75.4141 45.6892V45.9219H76.4141ZM76.4141 62V63H77.4141V62H76.4141ZM73.3906 62H72.3906V63H73.3906V62ZM73.3906 45.9688H74.3906V45.7349L74.287 45.5254L73.3906 45.9688ZM64.6953 28.3906V27.3906H63.085L63.799 28.834L64.6953 28.3906ZM67.9531 28.3906L68.8493 27.947L68.574 27.3906H67.9531V28.3906ZM74.8672 42.3594L73.971 42.803L74.8672 44.6137L75.7634 42.803L74.8672 42.3594ZM81.7812 28.3906V27.3906H81.1604L80.885 27.947L81.7812 28.3906ZM85.0391 28.3906L85.9364 28.8321L86.6455 27.3906H85.0391V28.3906ZM75.4141 45.9219V62H77.4141V45.9219H75.4141ZM76.4141 61H73.3906V63H76.4141V61ZM74.3906 62V45.9688H72.3906V62H74.3906ZM74.287 45.5254L65.5916 27.9472L63.799 28.834L72.4943 46.4121L74.287 45.5254ZM64.6953 29.3906H67.9531V27.3906H64.6953V29.3906ZM67.0569 28.8342L73.971 42.803L75.7634 41.9158L68.8493 27.947L67.0569 28.8342ZM75.7634 42.803L82.6775 28.8342L80.885 27.947L73.971 41.9158L75.7634 42.803ZM81.7812 29.3906H85.0391V27.3906H81.7812V29.3906ZM84.1418 27.9492L75.5168 45.4804L77.3114 46.3633L85.9364 28.8321L84.1418 27.9492Z" fill="#FF3300"/>
<path d="M117.844 54.2188C117.844 55.3594 117.625 56.4297 117.188 57.4297C116.766 58.4297 116.18 59.3047 115.43 60.0547C114.68 60.8047 113.805 61.3984 112.805 61.8359C111.805 62.2578 110.734 62.4688 109.594 62.4688H107.203C106.062 62.4688 104.984 62.2578 103.969 61.8359C102.969 61.3984 102.094 60.8047 101.344 60.0547C100.594 59.3047 100 58.4297 99.5625 57.4297C99.1406 56.4297 98.9297 55.3594 98.9297 54.2188V36.1719C98.9297 35.0312 99.1406 33.9609 99.5625 32.9609C100 31.9609 100.594 31.0859 101.344 30.3359C102.094 29.5859 102.969 29 103.969 28.5781C104.984 28.1406 106.062 27.9219 107.203 27.9219H109.594C110.734 27.9219 111.805 28.1406 112.805 28.5781C113.805 29 114.68 29.5859 115.43 30.3359C116.18 31.0859 116.766 31.9609 117.188 32.9609C117.625 33.9609 117.844 35.0312 117.844 36.1719V37.5312L114.82 38V36.1719C114.82 35.4219 114.68 34.7266 114.398 34.0859C114.117 33.4297 113.734 32.8594 113.25 32.375C112.766 31.8906 112.195 31.5078 111.539 31.2266C110.898 30.9453 110.203 30.8047 109.453 30.8047H107.344C106.594 30.8047 105.891 30.9453 105.234 31.2266C104.594 31.5078 104.023 31.8906 103.523 32.375C103.039 32.8594 102.656 33.4297 102.375 34.0859C102.094 34.7266 101.953 35.4219 101.953 36.1719V54.2188C101.953 54.9688 102.094 55.6719 102.375 56.3281C102.656 56.9688 103.039 57.5391 103.523 58.0391C104.023 58.5234 104.594 58.9062 105.234 59.1875C105.891 59.4688 106.594 59.6094 107.344 59.6094H109.453C110.203 59.6094 110.898 59.4688 111.539 59.1875C112.195 58.9062 112.766 58.5234 113.25 58.0391C113.734 57.5391 114.117 56.9688 114.398 56.3281C114.68 55.6719 114.82 54.9688 114.82 54.2188V52.3906L117.844 52.8828V54.2188ZM140.391 62L131.273 47.6562H127.125V62H124.102V28.3906H134.766C135.906 28.3906 136.977 28.6094 137.977 29.0469C138.977 29.4688 139.852 30.0547 140.602 30.8047C141.352 31.5547 141.938 32.4375 142.359 33.4531C142.797 34.4531 143.016 35.5234 143.016 36.6641V39.3828C143.016 40.5234 142.797 41.6016 142.359 42.6172C141.938 43.6172 141.352 44.4922 140.602 45.2422C139.852 45.9922 138.977 46.5859 137.977 47.0234C136.977 47.4453 135.906 47.6562 134.766 47.6562L143.883 62H140.391ZM139.992 36.6641C139.992 35.9141 139.852 35.2188 139.57 34.5781C139.289 33.9219 138.906 33.3516 138.422 32.8672C137.938 32.3672 137.367 31.9766 136.711 31.6953C136.07 31.4141 135.375 31.2734 134.625 31.2734H127.125V44.7734H134.625C135.375 44.7734 136.07 44.6328 136.711 44.3516C137.367 44.0703 137.938 43.6875 138.422 43.2031C138.906 42.7031 139.289 42.1328 139.57 41.4922C139.852 40.8359 139.992 40.1328 139.992 39.3828V36.6641ZM162.281 54.1719H151.641L149.438 62H146.297L156.141 28.3906H157.734L167.625 62H164.508L162.281 54.1719ZM152.461 51.2891H161.484L157.055 35.7969L156.961 34.5547L156.867 35.7969L152.461 51.2891ZM189.258 62L175.242 37.5312L174.961 36.0781V62H171.938V28.3906H173.508L187.523 52.8828L187.828 54.3125V28.3906H190.852V62H189.258ZM198.562 62V28.3906H217.477V31.2734H201.586V43.7656H214.453V46.6484H201.586V59.1172H217.477V62H198.562Z" fill="#010A43"/>
<path d="M117.188 57.4297L116.271 57.0288L116.266 57.041L117.188 57.4297ZM112.805 61.8359L113.193 62.7574L113.206 62.7521L112.805 61.8359ZM103.969 61.8359L103.568 62.7521L103.577 62.7558L103.585 62.7594L103.969 61.8359ZM99.5625 57.4297L98.6411 57.8184L98.6463 57.8305L99.5625 57.4297ZM99.5625 32.9609L98.6463 32.5601L98.6411 32.5722L99.5625 32.9609ZM103.969 28.5781L104.357 29.4995L104.364 29.4965L103.969 28.5781ZM112.805 28.5781L112.404 29.4944L112.416 29.4995L112.805 28.5781ZM117.188 32.9609L116.266 33.3497L116.271 33.3618L117.188 32.9609ZM117.844 37.5312L117.997 38.5194L118.844 38.3882V37.5312H117.844ZM114.82 38H113.82V39.167L114.974 38.9882L114.82 38ZM114.398 34.0859L113.479 34.4799L113.483 34.4879L114.398 34.0859ZM111.539 31.2266L111.137 32.1422L111.145 32.1457L111.539 31.2266ZM105.234 31.2266L104.84 30.3074L104.832 30.3109L105.234 31.2266ZM103.523 32.375L102.828 31.6568L102.822 31.6623L102.816 31.6679L103.523 32.375ZM102.375 34.0859L103.291 34.4879L103.294 34.4799L102.375 34.0859ZM102.375 56.3281L101.456 56.7221L101.459 56.7301L102.375 56.3281ZM103.523 58.0391L102.805 58.7349L102.816 58.7463L102.828 58.7573L103.523 58.0391ZM105.234 59.1875L104.832 60.1032L104.84 60.1066L105.234 59.1875ZM111.539 59.1875L111.145 58.2683L111.137 58.2719L111.539 59.1875ZM113.25 58.0391L113.957 58.7462L113.963 58.7406L113.968 58.7349L113.25 58.0391ZM114.398 56.3281L115.314 56.7301L115.318 56.722L114.398 56.3281ZM114.82 52.3906L114.981 51.4036L113.82 51.2147V52.3906H114.82ZM117.844 52.8828H118.844V52.0324L118.004 51.8958L117.844 52.8828ZM116.844 54.2188C116.844 55.2278 116.651 56.1609 116.271 57.0289L118.104 57.8305C118.599 56.6984 118.844 55.491 118.844 54.2188H116.844ZM116.266 57.041C115.893 57.9248 115.379 58.691 114.723 59.3476L116.137 60.7618C116.98 59.9183 117.638 58.9345 118.109 57.8184L116.266 57.041ZM114.723 59.3476C114.063 60.0068 113.293 60.5308 112.404 60.9198L113.206 62.7521C114.316 62.2661 115.296 61.6025 116.137 60.7618L114.723 59.3476ZM112.416 60.9146C111.545 61.2819 110.608 61.4688 109.594 61.4688V63.4688C110.861 63.4688 112.064 63.2337 113.193 62.7573L112.416 60.9146ZM109.594 61.4688H107.203V63.4688H109.594V61.4688ZM107.203 61.4688C106.189 61.4688 105.242 61.2819 104.352 60.9124L103.585 62.7594C104.727 63.2337 105.936 63.4688 107.203 63.4688V61.4688ZM104.37 60.9198C103.48 60.5308 102.71 60.0068 102.051 59.3476L100.637 60.7618C101.477 61.6025 102.457 62.2661 103.568 62.7521L104.37 60.9198ZM102.051 59.3476C101.392 58.6883 100.868 57.918 100.479 57.0289L98.6463 57.8305C99.1323 58.9414 99.7959 59.921 100.637 60.7618L102.051 59.3476ZM100.484 57.041C100.117 56.1702 99.9297 55.2328 99.9297 54.2188H97.9297C97.9297 55.486 98.1647 56.6892 98.6411 57.8184L100.484 57.041ZM99.9297 54.2188V36.1719H97.9297V54.2188H99.9297ZM99.9297 36.1719C99.9297 35.1578 100.117 34.2204 100.484 33.3496L98.6411 32.5722C98.1647 33.7015 97.9297 34.9047 97.9297 36.1719H99.9297ZM100.479 33.3618C100.868 32.4726 101.392 31.7023 102.051 31.043L100.637 29.6288C99.7959 30.4696 99.1323 31.4493 98.6463 32.5601L100.479 33.3618ZM102.051 31.043C102.707 30.3865 103.474 29.8724 104.357 29.4995L103.58 27.6568C102.464 28.1276 101.48 28.7854 100.637 29.6288L102.051 31.043ZM104.364 29.4965C105.251 29.1146 106.194 28.9219 107.203 28.9219V26.9219C105.931 26.9219 104.718 27.1667 103.573 27.6597L104.364 29.4965ZM107.203 28.9219H109.594V26.9219H107.203V28.9219ZM109.594 28.9219C110.603 28.9219 111.536 29.1146 112.404 29.4943L113.206 27.662C112.073 27.1667 110.866 26.9219 109.594 26.9219V28.9219ZM112.416 29.4995C113.3 29.8724 114.066 30.3865 114.723 31.043L116.137 29.6288C115.293 28.7854 114.31 28.1276 113.193 27.6568L112.416 29.4995ZM114.723 31.043C115.379 31.6996 115.893 32.4658 116.266 33.3496L118.109 32.5722C117.638 31.4561 116.98 30.4723 116.137 29.6288L114.723 31.043ZM116.271 33.3618C116.651 34.2297 116.844 35.1629 116.844 36.1719H118.844C118.844 34.8996 118.599 33.6922 118.104 32.5601L116.271 33.3618ZM116.844 36.1719V37.5312H118.844V36.1719H116.844ZM117.691 36.5431L114.667 37.0118L114.974 38.9882L117.997 38.5194L117.691 36.5431ZM115.82 38V36.1719H113.82V38H115.82ZM115.82 36.1719C115.82 35.2936 115.655 34.4602 115.314 33.6839L113.483 34.4879C113.704 34.9929 113.82 35.5502 113.82 36.1719H115.82ZM115.318 33.692C114.988 32.9239 114.535 32.246 113.957 31.6679L112.543 33.0821C112.934 33.4727 113.246 33.9355 113.479 34.4799L115.318 33.692ZM113.957 31.6679C113.379 31.0898 112.701 30.6366 111.933 30.3074L111.145 32.1457C111.689 32.379 112.152 32.6915 112.543 33.0821L113.957 31.6679ZM111.941 30.3109C111.165 29.9701 110.331 29.8047 109.453 29.8047V31.8047C110.075 31.8047 110.632 31.9205 111.137 32.1422L111.941 30.3109ZM109.453 29.8047H107.344V31.8047H109.453V29.8047ZM107.344 29.8047C106.465 29.8047 105.627 29.9701 104.84 30.3074L105.628 32.1457C106.154 31.9205 106.722 31.8047 107.344 31.8047V29.8047ZM104.832 30.3109C104.083 30.6397 103.413 31.0892 102.828 31.6568L104.219 33.0932C104.633 32.692 105.104 32.3759 105.636 32.1422L104.832 30.3109ZM102.816 31.6679C102.238 32.246 101.785 32.9239 101.456 33.692L103.294 34.4799C103.527 33.9355 103.84 33.4727 104.231 33.0821L102.816 31.6679ZM101.459 33.6839C101.119 34.4602 100.953 35.2936 100.953 36.1719H102.953C102.953 35.5502 103.069 34.9929 103.291 34.4879L101.459 33.6839ZM100.953 36.1719V54.2188H102.953V36.1719H100.953ZM100.953 54.2188C100.953 55.0972 101.119 55.9351 101.456 56.722L103.294 55.9342C103.069 55.4087 102.953 54.8403 102.953 54.2188H100.953ZM101.459 56.7301C101.788 57.4791 102.238 58.149 102.805 58.7349L104.242 57.3433C103.84 56.9291 103.524 56.4584 103.291 55.9261L101.459 56.7301ZM102.828 58.7573C103.413 59.3249 104.083 59.7743 104.832 60.1031L105.636 58.2719C105.104 58.0382 104.633 57.722 104.219 57.3208L102.828 58.7573ZM104.84 60.1066C105.627 60.4439 106.465 60.6094 107.344 60.6094V58.6094C106.722 58.6094 106.154 58.4936 105.628 58.2684L104.84 60.1066ZM107.344 60.6094H109.453V58.6094H107.344V60.6094ZM109.453 60.6094C110.331 60.6094 111.165 60.4439 111.941 60.1031L111.137 58.2719C110.632 58.4936 110.075 58.6094 109.453 58.6094V60.6094ZM111.933 60.1066C112.701 59.7774 113.379 59.3243 113.957 58.7462L112.543 57.332C112.152 57.7226 111.689 58.0351 111.145 58.2684L111.933 60.1066ZM113.968 58.7349C114.536 58.149 114.985 57.4791 115.314 56.7301L113.483 55.9261C113.249 56.4584 112.933 56.9291 112.532 57.3433L113.968 58.7349ZM115.318 56.722C115.655 55.9351 115.82 55.0972 115.82 54.2188H113.82C113.82 54.8403 113.705 55.4087 113.479 55.9342L115.318 56.722ZM115.82 54.2188V52.3906H113.82V54.2188H115.82ZM114.66 53.3776L117.683 53.8698L118.004 51.8958L114.981 51.4036L114.66 53.3776ZM116.844 52.8828V54.2188H118.844V52.8828H116.844ZM140.391 62L139.547 62.5364L139.841 63H140.391V62ZM131.273 47.6562L132.117 47.1198L131.823 46.6562H131.273V47.6562ZM127.125 47.6562V46.6562H126.125V47.6562H127.125ZM127.125 62V63H128.125V62H127.125ZM124.102 62H123.102V63H124.102V62ZM124.102 28.3906V27.3906H123.102V28.3906H124.102ZM137.977 29.0469L137.576 29.9631L137.588 29.9682L137.977 29.0469ZM142.359 33.4531L141.436 33.8367L141.439 33.8454L141.443 33.8539L142.359 33.4531ZM142.359 42.6172L141.441 42.2216L141.438 42.2285L142.359 42.6172ZM137.977 47.0234L138.365 47.9449L138.377 47.9396L137.977 47.0234ZM134.766 47.6562V46.6562H132.945L133.922 48.1927L134.766 47.6562ZM143.883 62V63H145.703L144.727 61.4636L143.883 62ZM139.57 34.5781L138.651 34.9721L138.655 34.9801L139.57 34.5781ZM138.422 32.8672L137.704 33.563L137.709 33.5687L137.715 33.5743L138.422 32.8672ZM136.711 31.6953L136.309 32.611L136.317 32.6145L136.711 31.6953ZM127.125 31.2734V30.2734H126.125V31.2734H127.125ZM127.125 44.7734H126.125V45.7734H127.125V44.7734ZM136.711 44.3516L136.317 43.4324L136.309 43.4359L136.711 44.3516ZM138.422 43.2031L139.129 43.9102L139.135 43.9046L139.14 43.8989L138.422 43.2031ZM139.57 41.4922L140.486 41.8942L140.489 41.8861L139.57 41.4922ZM141.235 61.4636L132.117 47.1198L130.429 48.1927L139.547 62.5364L141.235 61.4636ZM131.273 46.6562H127.125V48.6562H131.273V46.6562ZM126.125 47.6562V62H128.125V47.6562H126.125ZM127.125 61H124.102V63H127.125V61ZM125.102 62V28.3906H123.102V62H125.102ZM124.102 29.3906H134.766V27.3906H124.102V29.3906ZM134.766 29.3906C135.775 29.3906 136.708 29.5833 137.576 29.963L138.377 28.1307C137.245 27.6354 136.038 27.3906 134.766 27.3906V29.3906ZM137.588 29.9682C138.472 30.3411 139.238 30.8552 139.894 31.5118L141.309 30.0976C140.465 29.2541 139.481 28.5964 138.365 28.1255L137.588 29.9682ZM139.894 31.5118C140.548 32.1658 141.062 32.9375 141.436 33.8367L143.283 33.0695C142.813 31.9375 142.155 30.9436 141.309 30.0976L139.894 31.5118ZM141.443 33.8539C141.823 34.7219 142.016 35.6551 142.016 36.6641H144.016C144.016 35.3918 143.771 34.1844 143.276 33.0523L141.443 33.8539ZM142.016 36.6641V39.3828H144.016V36.6641H142.016ZM142.016 39.3828C142.016 40.3918 141.823 41.3349 141.441 42.2216L143.278 43.0128C143.771 41.8683 144.016 40.6551 144.016 39.3828H142.016ZM141.438 42.2285C141.065 43.1123 140.551 43.8785 139.894 44.5351L141.309 45.9493C142.152 45.1058 142.81 44.122 143.281 43.0059L141.438 42.2285ZM139.894 44.5351C139.235 45.1943 138.465 45.7183 137.576 46.1073L138.377 47.9396C139.488 47.4536 140.468 46.79 141.309 45.9493L139.894 44.5351ZM137.588 46.1021C136.717 46.4694 135.78 46.6562 134.766 46.6562V48.6562C136.033 48.6562 137.236 48.4212 138.365 47.9448L137.588 46.1021ZM133.922 48.1927L143.039 62.5364L144.727 61.4636L135.61 47.1198L133.922 48.1927ZM143.883 61H140.391V63H143.883V61ZM140.992 36.6641C140.992 35.7858 140.827 34.9524 140.486 34.1761L138.655 34.9801C138.876 35.4851 138.992 36.0423 138.992 36.6641H140.992ZM140.489 34.1842C140.16 33.4161 139.707 32.7382 139.129 32.1601L137.715 33.5743C138.105 33.9649 138.418 34.4277 138.651 34.972L140.489 34.1842ZM139.14 32.1714C138.561 31.5737 137.88 31.1083 137.105 30.7762L136.317 32.6145C136.855 32.8449 137.314 33.1607 137.704 33.563L139.14 32.1714ZM137.113 30.7797C136.337 30.4389 135.503 30.2734 134.625 30.2734V32.2734C135.247 32.2734 135.804 32.3893 136.309 32.611L137.113 30.7797ZM134.625 30.2734H127.125V32.2734H134.625V30.2734ZM126.125 31.2734V44.7734H128.125V31.2734H126.125ZM127.125 45.7734H134.625V43.7734H127.125V45.7734ZM134.625 45.7734C135.503 45.7734 136.337 45.608 137.113 45.2672L136.309 43.4359C135.804 43.6576 135.247 43.7734 134.625 43.7734V45.7734ZM137.105 45.2707C137.873 44.9415 138.551 44.4884 139.129 43.9102L137.715 42.496C137.324 42.8866 136.861 43.1991 136.317 43.4324L137.105 45.2707ZM139.14 43.8989C139.708 43.3131 140.157 42.6431 140.486 41.8942L138.655 41.0902C138.421 41.6225 138.105 42.0932 137.704 42.5073L139.14 43.8989ZM140.489 41.8861C140.827 41.0991 140.992 40.2613 140.992 39.3828H138.992C138.992 40.0043 138.876 40.5727 138.651 41.0983L140.489 41.8861ZM140.992 39.3828V36.6641H138.992V39.3828H140.992ZM162.281 54.1719L163.243 53.8983L163.036 53.1719H162.281V54.1719ZM151.641 54.1719V53.1719H150.883L150.678 53.901L151.641 54.1719ZM149.438 62V63H150.195L150.4 62.2709L149.438 62ZM146.297 62L145.337 61.7189L144.962 63H146.297V62ZM156.141 28.3906V27.3906H155.392L155.181 28.1095L156.141 28.3906ZM157.734 28.3906L158.694 28.1083L158.482 27.3906H157.734V28.3906ZM167.625 62V63H168.962L168.584 61.7177L167.625 62ZM164.508 62L163.546 62.2736L163.753 63H164.508V62ZM152.461 51.2891L151.499 51.0155L151.137 52.2891H152.461V51.2891ZM161.484 51.2891V52.2891H162.81L162.446 51.0141L161.484 51.2891ZM157.055 35.7969L156.058 35.8721L156.065 35.9738L156.093 36.0718L157.055 35.7969ZM156.961 34.5547L157.958 34.4794H155.964L156.961 34.5547ZM156.867 35.7969L157.829 36.0704L157.857 35.9731L157.864 35.8721L156.867 35.7969ZM162.281 53.1719H151.641V55.1719H162.281V53.1719ZM150.678 53.901L148.475 61.7291L150.4 62.2709L152.603 54.4428L150.678 53.901ZM149.438 61H146.297V63H149.438V61ZM147.257 62.2811L157.1 28.6717L155.181 28.1095L145.337 61.7189L147.257 62.2811ZM156.141 29.3906H157.734V27.3906H156.141V29.3906ZM156.775 28.6729L166.666 62.2823L168.584 61.7177L158.694 28.1083L156.775 28.6729ZM167.625 61H164.508V63H167.625V61ZM165.47 61.7264L163.243 53.8983L161.319 54.4455L163.546 62.2736L165.47 61.7264ZM152.461 52.2891H161.484V50.2891H152.461V52.2891ZM162.446 51.0141L158.016 35.522L156.093 36.0718L160.523 51.564L162.446 51.0141ZM158.052 35.7216L157.958 34.4794L155.964 34.6299L156.058 35.8721L158.052 35.7216ZM155.964 34.4794L155.87 35.7216L157.864 35.8721L157.958 34.6299L155.964 34.4794ZM155.905 35.5233L151.499 51.0155L153.423 51.5626L157.829 36.0704L155.905 35.5233ZM189.258 62L188.39 62.497L188.678 63H189.258V62ZM175.242 37.5312L174.26 37.7213L174.292 37.8842L174.374 38.0283L175.242 37.5312ZM174.961 36.0781L175.943 35.8881L173.961 36.0781H174.961ZM174.961 62V63H175.961V62H174.961ZM171.938 62H170.938V63H171.938V62ZM171.938 28.3906V27.3906H170.938V28.3906H171.938ZM173.508 28.3906L174.376 27.8939L174.088 27.3906H173.508V28.3906ZM187.523 52.8828L188.501 52.6744L188.469 52.5217L188.391 52.3861L187.523 52.8828ZM187.828 54.3125L186.85 54.5209L188.828 54.3125H187.828ZM187.828 28.3906V27.3906H186.828V28.3906H187.828ZM190.852 28.3906H191.852V27.3906H190.852V28.3906ZM190.852 62V63H191.852V62H190.852ZM190.126 61.503L176.11 37.0342L174.374 38.0283L188.39 62.497L190.126 61.503ZM176.224 37.3412L175.943 35.8881L173.979 36.2681L174.26 37.7213L176.224 37.3412ZM173.961 36.0781V62H175.961V36.0781H173.961ZM174.961 61H171.938V63H174.961V61ZM172.938 62V28.3906H170.938V62H172.938ZM171.938 29.3906H173.508V27.3906H171.938V29.3906ZM172.64 28.8873L186.656 53.3795L188.391 52.3861L174.376 27.8939L172.64 28.8873ZM186.545 53.0912L186.85 54.5209L188.806 54.1041L188.501 52.6744L186.545 53.0912ZM188.828 54.3125V28.3906H186.828V54.3125H188.828ZM187.828 29.3906H190.852V27.3906H187.828V29.3906ZM189.852 28.3906V62H191.852V28.3906H189.852ZM190.852 61H189.258V63H190.852V61ZM198.562 62H197.562V63H198.562V62ZM198.562 28.3906V27.3906H197.562V28.3906H198.562ZM217.477 28.3906H218.477V27.3906H217.477V28.3906ZM217.477 31.2734V32.2734H218.477V31.2734H217.477ZM201.586 31.2734V30.2734H200.586V31.2734H201.586ZM201.586 43.7656H200.586V44.7656H201.586V43.7656ZM214.453 43.7656H215.453V42.7656H214.453V43.7656ZM214.453 46.6484V47.6484H215.453V46.6484H214.453ZM201.586 46.6484V45.6484H200.586V46.6484H201.586ZM201.586 59.1172H200.586V60.1172H201.586V59.1172ZM217.477 59.1172H218.477V58.1172H217.477V59.1172ZM217.477 62V63H218.477V62H217.477ZM199.562 62V28.3906H197.562V62H199.562ZM198.562 29.3906H217.477V27.3906H198.562V29.3906ZM216.477 28.3906V31.2734H218.477V28.3906H216.477ZM217.477 30.2734H201.586V32.2734H217.477V30.2734ZM200.586 31.2734V43.7656H202.586V31.2734H200.586ZM201.586 44.7656H214.453V42.7656H201.586V44.7656ZM213.453 43.7656V46.6484H215.453V43.7656H213.453ZM214.453 45.6484H201.586V47.6484H214.453V45.6484ZM200.586 46.6484V59.1172H202.586V46.6484H200.586ZM201.586 60.1172H217.477V58.1172H201.586V60.1172ZM216.477 59.1172V62H218.477V59.1172H216.477ZM217.477 61H198.562V63H217.477V61Z" fill="#010A43"/>
<path d="M257.469 54.2188C257.469 55.3594 257.234 56.4297 256.766 57.4297C256.312 58.4297 255.695 59.3047 254.914 60.0547C254.148 60.8047 253.25 61.3984 252.219 61.8359C251.203 62.2578 250.125 62.4688 248.984 62.4688H246.57C245.43 62.4688 244.344 62.2578 243.312 61.8359C242.297 61.3984 241.398 60.8047 240.617 60.0547C239.852 59.3047 239.234 58.4297 238.766 57.4297C238.312 56.4297 238.086 55.3594 238.086 54.2188V52.8828L241.109 52.3906V54.2188C241.109 54.9688 241.258 55.6719 241.555 56.3281C241.867 56.9688 242.281 57.5391 242.797 58.0391C243.312 58.5234 243.906 58.9062 244.578 59.1875C245.266 59.4688 245.984 59.6094 246.734 59.6094H248.844C249.594 59.6094 250.305 59.4688 250.977 59.1875C251.648 58.9062 252.242 58.5234 252.758 58.0391C253.273 57.5391 253.68 56.9688 253.977 56.3281C254.289 55.6719 254.445 54.9688 254.445 54.2188V53.2109C254.445 52.0547 254.219 51.0938 253.766 50.3281C253.312 49.5625 252.711 48.9141 251.961 48.3828C251.211 47.8359 250.359 47.375 249.406 47C248.469 46.625 247.5 46.25 246.5 45.875C245.5 45.5 244.523 45.0859 243.57 44.6328C242.633 44.1797 241.789 43.6172 241.039 42.9453C240.289 42.2578 239.688 41.4219 239.234 40.4375C238.781 39.4531 238.555 38.2422 238.555 36.8047V36.1719C238.555 35.0312 238.766 33.9609 239.188 32.9609C239.625 31.9609 240.219 31.0859 240.969 30.3359C241.719 29.5859 242.594 29 243.594 28.5781C244.609 28.1406 245.688 27.9219 246.828 27.9219H248.984C250.125 27.9219 251.195 28.1406 252.195 28.5781C253.195 29 254.07 29.5859 254.82 30.3359C255.57 31.0859 256.156 31.9609 256.578 32.9609C257.016 33.9609 257.234 35.0312 257.234 36.1719V37.0391L254.211 37.5312V36.1719C254.211 35.4219 254.07 34.7266 253.789 34.0859C253.508 33.4297 253.125 32.8594 252.641 32.375C252.156 31.8906 251.586 31.5078 250.93 31.2266C250.289 30.9453 249.594 30.8047 248.844 30.8047H246.969C246.219 30.8047 245.516 30.9453 244.859 31.2266C244.219 31.5078 243.648 31.8906 243.148 32.375C242.664 32.8594 242.281 33.4297 242 34.0859C241.719 34.7266 241.578 35.4219 241.578 36.1719V36.8047C241.578 37.8828 241.805 38.7891 242.258 39.5234C242.711 40.2578 243.312 40.8906 244.062 41.4219C244.812 41.9375 245.656 42.3906 246.594 42.7812C247.547 43.1562 248.523 43.5469 249.523 43.9531C250.523 44.3438 251.492 44.7812 252.43 45.2656C253.383 45.7344 254.234 46.3203 254.984 47.0234C255.734 47.7109 256.336 48.5547 256.789 49.5547C257.242 50.5547 257.469 51.7734 257.469 53.2109V54.2188ZM263.984 62V28.3906H282.898V31.2734H267.008V43.7656H279.875V46.6484H267.008V59.1172H282.898V62H263.984ZM304.484 62L295.367 47.6562H291.219V62H288.195V28.3906H298.859C300 28.3906 301.07 28.6094 302.07 29.0469C303.07 29.4688 303.945 30.0547 304.695 30.8047C305.445 31.5547 306.031 32.4375 306.453 33.4531C306.891 34.4531 307.109 35.5234 307.109 36.6641V39.3828C307.109 40.5234 306.891 41.6016 306.453 42.6172C306.031 43.6172 305.445 44.4922 304.695 45.2422C303.945 45.9922 303.07 46.5859 302.07 47.0234C301.07 47.4453 300 47.6562 298.859 47.6562L307.977 62H304.484ZM304.086 36.6641C304.086 35.9141 303.945 35.2188 303.664 34.5781C303.383 33.9219 303 33.3516 302.516 32.8672C302.031 32.3672 301.461 31.9766 300.805 31.6953C300.164 31.4141 299.469 31.2734 298.719 31.2734H291.219V44.7734H298.719C299.469 44.7734 300.164 44.6328 300.805 44.3516C301.461 44.0703 302.031 43.6875 302.516 43.2031C303 42.7031 303.383 42.1328 303.664 41.4922C303.945 40.8359 304.086 40.1328 304.086 39.3828V36.6641ZM320.961 54.6172L321.055 55.8594L321.148 54.6172L328.602 28.3906H331.719L321.828 62H320.234L310.391 28.3906H313.531L320.961 54.6172ZM336.031 62V28.3906H339.055V62H336.031ZM365.188 54.2188C365.188 55.3594 364.969 56.4297 364.531 57.4297C364.109 58.4297 363.523 59.3047 362.773 60.0547C362.023 60.8047 361.148 61.3984 360.148 61.8359C359.148 62.2578 358.078 62.4688 356.938 62.4688H354.547C353.406 62.4688 352.328 62.2578 351.312 61.8359C350.312 61.3984 349.438 60.8047 348.688 60.0547C347.938 59.3047 347.344 58.4297 346.906 57.4297C346.484 56.4297 346.273 55.3594 346.273 54.2188V36.1719C346.273 35.0312 346.484 33.9609 346.906 32.9609C347.344 31.9609 347.938 31.0859 348.688 30.3359C349.438 29.5859 350.312 29 351.312 28.5781C352.328 28.1406 353.406 27.9219 354.547 27.9219H356.938C358.078 27.9219 359.148 28.1406 360.148 28.5781C361.148 29 362.023 29.5859 362.773 30.3359C363.523 31.0859 364.109 31.9609 364.531 32.9609C364.969 33.9609 365.188 35.0312 365.188 36.1719V37.5312L362.164 38V36.1719C362.164 35.4219 362.023 34.7266 361.742 34.0859C361.461 33.4297 361.078 32.8594 360.594 32.375C360.109 31.8906 359.539 31.5078 358.883 31.2266C358.242 30.9453 357.547 30.8047 356.797 30.8047H354.688C353.938 30.8047 353.234 30.9453 352.578 31.2266C351.938 31.5078 351.367 31.8906 350.867 32.375C350.383 32.8594 350 33.4297 349.719 34.0859C349.438 34.7266 349.297 35.4219 349.297 36.1719V54.2188C349.297 54.9688 349.438 55.6719 349.719 56.3281C350 56.9688 350.383 57.5391 350.867 58.0391C351.367 58.5234 351.938 58.9062 352.578 59.1875C353.234 59.4688 353.938 59.6094 354.688 59.6094H356.797C357.547 59.6094 358.242 59.4688 358.883 59.1875C359.539 58.9062 360.109 58.5234 360.594 58.0391C361.078 57.5391 361.461 56.9688 361.742 56.3281C362.023 55.6719 362.164 54.9688 362.164 54.2188V52.3906L365.188 52.8828V54.2188ZM371.938 62V28.3906H390.852V31.2734H374.961V43.7656H387.828V46.6484H374.961V59.1172H390.852V62H371.938Z" fill="#010A43"/>
<path d="M256.766 57.4297L255.86 57.0052L255.855 57.017L256.766 57.4297ZM254.914 60.0547L254.221 59.3333L254.214 59.3403L254.914 60.0547ZM252.219 61.8359L252.602 62.7595L252.609 62.7565L252.219 61.8359ZM243.312 61.8359L242.917 62.7544L242.925 62.758L242.934 62.7615L243.312 61.8359ZM240.617 60.0547L239.917 60.7691L239.925 60.7761L240.617 60.0547ZM238.766 57.4297L237.855 57.8425L237.86 57.8541L238.766 57.4297ZM238.086 52.8828L237.925 51.8958L237.086 52.0324V52.8828H238.086ZM241.109 52.3906H242.109V51.2147L240.949 51.4036L241.109 52.3906ZM241.555 56.3281L240.644 56.7403L240.65 56.7535L240.656 56.7665L241.555 56.3281ZM242.797 58.0391L242.101 58.757L242.106 58.7625L242.112 58.7679L242.797 58.0391ZM244.578 59.1875L244.192 60.11L244.199 60.113L244.578 59.1875ZM252.758 58.0391L253.442 58.7679L253.448 58.7625L253.454 58.757L252.758 58.0391ZM253.977 56.3281L253.074 55.8982L253.069 55.9077L253.977 56.3281ZM251.961 48.3828L251.372 49.1909L251.383 49.1988L251.961 48.3828ZM249.406 47L249.035 47.9285L249.04 47.9306L249.406 47ZM243.57 44.6328L243.135 45.5332L243.141 45.5359L243.57 44.6328ZM241.039 42.9453L240.363 43.6825L240.372 43.6901L241.039 42.9453ZM239.188 32.9609L238.271 32.5601L238.266 32.5722L239.188 32.9609ZM243.594 28.5781L243.982 29.4995L243.989 29.4965L243.594 28.5781ZM252.195 28.5781L251.794 29.4944L251.807 29.4995L252.195 28.5781ZM256.578 32.9609L255.657 33.3497L255.662 33.3618L256.578 32.9609ZM257.234 37.0391L257.395 38.0261L258.234 37.8894V37.0391H257.234ZM254.211 37.5312H253.211V38.7072L254.372 38.5183L254.211 37.5312ZM253.789 34.0859L252.87 34.4799L252.873 34.4879L253.789 34.0859ZM250.93 31.2266L250.528 32.1422L250.536 32.1457L250.93 31.2266ZM244.859 31.2266L244.465 30.3074L244.457 30.3109L244.859 31.2266ZM243.148 32.375L242.453 31.6568L242.447 31.6623L242.441 31.6679L243.148 32.375ZM242 34.0859L242.916 34.4879L242.919 34.4799L242 34.0859ZM244.062 41.4219L243.484 42.238L243.496 42.2459L244.062 41.4219ZM246.594 42.7812L246.209 43.7043L246.218 43.7082L246.228 43.7118L246.594 42.7812ZM249.523 43.9531L249.147 44.8797L249.16 44.8846L249.523 43.9531ZM252.43 45.2656L251.971 46.1541L251.979 46.1586L251.988 46.163L252.43 45.2656ZM254.984 47.0234L254.3 47.753L254.309 47.7606L254.984 47.0234ZM256.469 54.2188C256.469 55.2176 256.265 56.1425 255.86 57.0053L257.671 57.8541C258.204 56.7169 258.469 55.5011 258.469 54.2188H256.469ZM255.855 57.017C255.453 57.9028 254.91 58.6726 254.222 59.3333L255.607 60.7761C256.481 59.9368 257.172 58.9566 257.676 57.8424L255.855 57.017ZM254.214 59.3403C253.542 59.9989 252.75 60.5244 251.828 60.9154L252.609 62.7565C253.75 62.2724 254.755 61.6104 255.614 60.769L254.214 59.3403ZM251.835 60.9124C250.946 61.2819 249.998 61.4688 248.984 61.4688V63.4688C250.252 63.4688 251.461 63.2337 252.602 62.7594L251.835 60.9124ZM248.984 61.4688H246.57V63.4688H248.984V61.4688ZM246.57 61.4688C245.556 61.4688 244.599 61.2819 243.691 60.9104L242.934 62.7615C244.088 63.2337 245.303 63.4688 246.57 63.4688V61.4688ZM243.708 60.9175C242.8 60.5264 242.003 59.9986 241.31 59.3333L239.925 60.7761C240.794 61.6108 241.794 62.2705 242.917 62.7544L243.708 60.9175ZM241.317 59.3403C240.639 58.6765 240.091 57.9005 239.671 57.0053L237.86 57.8541C238.378 58.9589 239.064 59.9329 239.917 60.769L241.317 59.3403ZM239.676 57.017C239.284 56.1517 239.086 55.2227 239.086 54.2188H237.086C237.086 55.496 237.341 56.7077 237.855 57.8424L239.676 57.017ZM239.086 54.2188V52.8828H237.086V54.2188H239.086ZM238.247 53.8698L241.27 53.3776L240.949 51.4036L237.925 51.8958L238.247 53.8698ZM240.109 52.3906V54.2188H242.109V52.3906H240.109ZM240.109 54.2188C240.109 55.1049 240.286 55.9492 240.644 56.7403L242.466 55.916C242.23 55.3946 242.109 54.8326 242.109 54.2188H240.109ZM240.656 56.7665C241.02 57.5122 241.503 58.1769 242.101 58.757L243.493 57.3212C243.06 56.9012 242.715 56.4253 242.453 55.8897L240.656 56.7665ZM242.112 58.7679C242.718 59.3366 243.413 59.7839 244.192 60.1099L244.964 58.2651C244.399 58.0286 243.907 57.7103 243.482 57.3102L242.112 58.7679ZM244.199 60.113C245.008 60.4439 245.856 60.6094 246.734 60.6094V58.6094C246.113 58.6094 245.523 58.4936 244.957 58.262L244.199 60.113ZM246.734 60.6094H248.844V58.6094H246.734V60.6094ZM248.844 60.6094C249.722 60.6094 250.565 60.4439 251.363 60.1099L250.59 58.2651C250.045 58.4936 249.465 58.6094 248.844 58.6094V60.6094ZM251.363 60.1099C252.142 59.7839 252.837 59.3366 253.442 58.7679L252.073 57.3102C251.647 57.7103 251.155 58.0286 250.59 58.2651L251.363 60.1099ZM253.454 58.757C254.056 58.1731 254.535 57.5024 254.884 56.7486L253.069 55.9077C252.825 56.4351 252.491 56.905 252.062 57.3212L253.454 58.757ZM254.879 56.7581C255.258 55.9632 255.445 55.1126 255.445 54.2188H253.445C253.445 54.8249 253.32 55.3806 253.074 55.8982L254.879 56.7581ZM255.445 54.2188V53.2109H253.445V54.2188H255.445ZM255.445 53.2109C255.445 51.928 255.194 50.7783 254.626 49.8188L252.905 50.8374C253.243 51.4092 253.445 52.1814 253.445 53.2109H255.445ZM254.626 49.8188C254.099 48.9282 253.4 48.1765 252.539 47.5668L251.383 49.1988C252.022 49.6516 252.526 50.1968 252.905 50.8374L254.626 49.8188ZM252.55 47.5748C251.725 46.9729 250.797 46.4724 249.772 46.0694L249.04 47.9306C249.922 48.2776 250.697 48.699 251.372 49.1908L252.55 47.5748ZM249.778 46.0715C248.833 45.6937 247.858 45.3161 246.851 44.9387L246.149 46.8113C247.142 47.1839 248.104 47.5563 249.035 47.9285L249.778 46.0715ZM246.851 44.9387C245.877 44.5735 244.927 44.1705 244 43.7297L243.141 45.5359C244.12 46.0014 245.123 46.4265 246.149 46.8113L246.851 44.9387ZM244.005 43.7325C243.149 43.3187 242.384 42.8078 241.706 42.2005L240.372 43.6901C241.194 44.4266 242.116 45.0407 243.135 45.5332L244.005 43.7325ZM241.715 42.2082C241.069 41.6162 240.544 40.891 240.143 40.0194L238.326 40.8556C238.831 41.9528 239.509 42.8994 240.363 43.6825L241.715 42.2082ZM240.143 40.0194C239.766 39.2016 239.555 38.1427 239.555 36.8047H237.555C237.555 38.3416 237.796 39.7047 238.326 40.8556L240.143 40.0194ZM239.555 36.8047V36.1719H237.555V36.8047H239.555ZM239.555 36.1719C239.555 35.1578 239.742 34.2204 240.109 33.3496L238.266 32.5722C237.79 33.7015 237.555 34.9047 237.555 36.1719H239.555ZM240.104 33.3618C240.493 32.4726 241.017 31.7023 241.676 31.043L240.262 29.6288C239.421 30.4696 238.757 31.4493 238.271 32.5601L240.104 33.3618ZM241.676 31.043C242.332 30.3865 243.099 29.8724 243.982 29.4995L243.205 27.6568C242.089 28.1276 241.105 28.7854 240.262 29.6288L241.676 31.043ZM243.989 29.4965C244.876 29.1146 245.819 28.9219 246.828 28.9219V26.9219C245.556 26.9219 244.343 27.1667 243.198 27.6597L243.989 29.4965ZM246.828 28.9219H248.984V26.9219H246.828V28.9219ZM248.984 28.9219C249.993 28.9219 250.927 29.1146 251.794 29.4943L252.596 27.662C251.464 27.1667 250.257 26.9219 248.984 26.9219V28.9219ZM251.807 29.4995C252.69 29.8724 253.457 30.3865 254.113 31.043L255.527 29.6288C254.684 28.7854 253.7 28.1276 252.584 27.6568L251.807 29.4995ZM254.113 31.043C254.77 31.6996 255.284 32.4658 255.657 33.3496L257.499 32.5722C257.029 31.4561 256.371 30.4723 255.527 29.6288L254.113 31.043ZM255.662 33.3618C256.042 34.2297 256.234 35.1629 256.234 36.1719H258.234C258.234 34.8996 257.99 33.6922 257.494 32.5601L255.662 33.3618ZM256.234 36.1719V37.0391H258.234V36.1719H256.234ZM257.074 36.0521L254.05 36.5442L254.372 38.5183L257.395 38.0261L257.074 36.0521ZM255.211 37.5312V36.1719H253.211V37.5312H255.211ZM255.211 36.1719C255.211 35.2936 255.046 34.4602 254.705 33.6839L252.873 34.4879C253.095 34.9929 253.211 35.5502 253.211 36.1719H255.211ZM254.708 33.692C254.379 32.9239 253.926 32.246 253.348 31.6679L251.934 33.0821C252.324 33.4727 252.637 33.9355 252.87 34.4799L254.708 33.692ZM253.348 31.6679C252.77 31.0898 252.092 30.6366 251.324 30.3074L250.536 32.1457C251.08 32.379 251.543 32.6915 251.934 33.0821L253.348 31.6679ZM251.332 30.3109C250.555 29.9701 249.722 29.8047 248.844 29.8047V31.8047C249.465 31.8047 250.023 31.9205 250.528 32.1422L251.332 30.3109ZM248.844 29.8047H246.969V31.8047H248.844V29.8047ZM246.969 29.8047C246.09 29.8047 245.252 29.9701 244.465 30.3074L245.253 32.1457C245.779 31.9205 246.347 31.8047 246.969 31.8047V29.8047ZM244.457 30.3109C243.708 30.6397 243.038 31.0892 242.453 31.6568L243.844 33.0932C244.258 32.692 244.729 32.3759 245.261 32.1422L244.457 30.3109ZM242.441 31.6679C241.863 32.246 241.41 32.9239 241.081 33.692L242.919 34.4799C243.152 33.9355 243.465 33.4727 243.856 33.0821L242.441 31.6679ZM241.084 33.6839C240.744 34.4602 240.578 35.2936 240.578 36.1719H242.578C242.578 35.5502 242.694 34.9929 242.916 34.4879L241.084 33.6839ZM240.578 36.1719V36.8047H242.578V36.1719H240.578ZM240.578 36.8047C240.578 38.0223 240.835 39.1213 241.407 40.0485L243.109 38.9983C242.775 38.4568 242.578 37.7433 242.578 36.8047H240.578ZM241.407 40.0485C241.935 40.9046 242.632 41.6341 243.484 42.2379L244.641 40.6059C243.993 40.1471 243.487 39.6111 243.109 38.9983L241.407 40.0485ZM243.496 42.2459C244.309 42.805 245.215 43.2901 246.209 43.7043L246.978 41.8582C246.098 41.4912 245.316 41.07 244.629 40.5978L243.496 42.2459ZM246.228 43.7118C247.177 44.0854 248.15 44.4747 249.147 44.8796L249.9 43.0267C248.897 42.6191 247.917 42.2271 246.96 41.8507L246.228 43.7118ZM249.16 44.8846C250.128 45.2628 251.065 45.6859 251.971 46.1541L252.889 44.3772C251.92 43.8766 250.919 43.4247 249.887 43.0217L249.16 44.8846ZM251.988 46.163C252.856 46.5895 253.625 47.1197 254.3 47.753L255.668 46.2939C254.844 45.5209 253.91 44.8792 252.871 44.3683L251.988 46.163ZM254.309 47.7606C254.952 48.3499 255.476 49.0805 255.878 49.9674L257.7 49.142C257.196 48.0289 256.517 47.072 255.66 46.2863L254.309 47.7606ZM255.878 49.9674C256.257 50.8042 256.469 51.8737 256.469 53.2109H258.469C258.469 51.6732 258.227 50.3051 257.7 49.142L255.878 49.9674ZM256.469 53.2109V54.2188H258.469V53.2109H256.469ZM263.984 62H262.984V63H263.984V62ZM263.984 28.3906V27.3906H262.984V28.3906H263.984ZM282.898 28.3906H283.898V27.3906H282.898V28.3906ZM282.898 31.2734V32.2734H283.898V31.2734H282.898ZM267.008 31.2734V30.2734H266.008V31.2734H267.008ZM267.008 43.7656H266.008V44.7656H267.008V43.7656ZM279.875 43.7656H280.875V42.7656H279.875V43.7656ZM279.875 46.6484V47.6484H280.875V46.6484H279.875ZM267.008 46.6484V45.6484H266.008V46.6484H267.008ZM267.008 59.1172H266.008V60.1172H267.008V59.1172ZM282.898 59.1172H283.898V58.1172H282.898V59.1172ZM282.898 62V63H283.898V62H282.898ZM264.984 62V28.3906H262.984V62H264.984ZM263.984 29.3906H282.898V27.3906H263.984V29.3906ZM281.898 28.3906V31.2734H283.898V28.3906H281.898ZM282.898 30.2734H267.008V32.2734H282.898V30.2734ZM266.008 31.2734V43.7656H268.008V31.2734H266.008ZM267.008 44.7656H279.875V42.7656H267.008V44.7656ZM278.875 43.7656V46.6484H280.875V43.7656H278.875ZM279.875 45.6484H267.008V47.6484H279.875V45.6484ZM266.008 46.6484V59.1172H268.008V46.6484H266.008ZM267.008 60.1172H282.898V58.1172H267.008V60.1172ZM281.898 59.1172V62H283.898V59.1172H281.898ZM282.898 61H263.984V63H282.898V61ZM304.484 62L303.64 62.5364L303.935 63H304.484V62ZM295.367 47.6562L296.211 47.1198L295.916 46.6562H295.367V47.6562ZM291.219 47.6562V46.6562H290.219V47.6562H291.219ZM291.219 62V63H292.219V62H291.219ZM288.195 62H287.195V63H288.195V62ZM288.195 28.3906V27.3906H287.195V28.3906H288.195ZM302.07 29.0469L301.669 29.9631L301.682 29.9682L302.07 29.0469ZM306.453 33.4531L305.53 33.8367L305.533 33.8454L305.537 33.8539L306.453 33.4531ZM306.453 42.6172L305.535 42.2216L305.532 42.2285L306.453 42.6172ZM302.07 47.0234L302.459 47.9449L302.471 47.9396L302.07 47.0234ZM298.859 47.6562V46.6562H297.039L298.015 48.1927L298.859 47.6562ZM307.977 62V63H309.797L308.821 61.4636L307.977 62ZM303.664 34.5781L302.745 34.9721L302.748 34.9801L303.664 34.5781ZM302.516 32.8672L301.797 33.563L301.803 33.5687L301.809 33.5743L302.516 32.8672ZM300.805 31.6953L300.403 32.611L300.411 32.6145L300.805 31.6953ZM291.219 31.2734V30.2734H290.219V31.2734H291.219ZM291.219 44.7734H290.219V45.7734H291.219V44.7734ZM300.805 44.3516L300.411 43.4324L300.403 43.4359L300.805 44.3516ZM302.516 43.2031L303.223 43.9102L303.228 43.9046L303.234 43.8989L302.516 43.2031ZM303.664 41.4922L304.58 41.8942L304.583 41.8861L303.664 41.4922ZM305.328 61.4636L296.211 47.1198L294.523 48.1927L303.64 62.5364L305.328 61.4636ZM295.367 46.6562H291.219V48.6562H295.367V46.6562ZM290.219 47.6562V62H292.219V47.6562H290.219ZM291.219 61H288.195V63H291.219V61ZM289.195 62V28.3906H287.195V62H289.195ZM288.195 29.3906H298.859V27.3906H288.195V29.3906ZM298.859 29.3906C299.868 29.3906 300.802 29.5833 301.669 29.963L302.471 28.1307C301.339 27.6354 300.132 27.3906 298.859 27.3906V29.3906ZM301.682 29.9682C302.565 30.3411 303.332 30.8552 303.988 31.5118L305.402 30.0976C304.559 29.2541 303.575 28.5964 302.459 28.1255L301.682 29.9682ZM303.988 31.5118C304.642 32.1658 305.156 32.9375 305.53 33.8367L307.377 33.0695C306.906 31.9375 306.248 30.9436 305.402 30.0976L303.988 31.5118ZM305.537 33.8539C305.917 34.7219 306.109 35.6551 306.109 36.6641H308.109C308.109 35.3918 307.865 34.1844 307.369 33.0523L305.537 33.8539ZM306.109 36.6641V39.3828H308.109V36.6641H306.109ZM306.109 39.3828C306.109 40.3918 305.917 41.3349 305.535 42.2216L307.372 43.0128C307.865 41.8683 308.109 40.6551 308.109 39.3828H306.109ZM305.532 42.2285C305.159 43.1123 304.645 43.8785 303.988 44.5351L305.402 45.9493C306.246 45.1058 306.904 44.122 307.374 43.0059L305.532 42.2285ZM303.988 44.5351C303.329 45.1943 302.559 45.7183 301.669 46.1073L302.471 47.9396C303.582 47.4536 304.562 46.79 305.402 45.9493L303.988 44.5351ZM301.682 46.1021C300.811 46.4694 299.873 46.6562 298.859 46.6562V48.6562C300.127 48.6562 301.33 48.4212 302.459 47.9448L301.682 46.1021ZM298.015 48.1927L307.133 62.5364L308.821 61.4636L299.703 47.1198L298.015 48.1927ZM307.977 61H304.484V63H307.977V61ZM305.086 36.6641C305.086 35.7858 304.921 34.9524 304.58 34.1761L302.748 34.9801C302.97 35.4851 303.086 36.0423 303.086 36.6641H305.086ZM304.583 34.1842C304.254 33.4161 303.801 32.7382 303.223 32.1601L301.809 33.5743C302.199 33.9649 302.512 34.4277 302.745 34.972L304.583 34.1842ZM303.234 32.1714C302.655 31.5737 301.974 31.1083 301.199 30.7762L300.411 32.6145C300.948 32.8449 301.408 33.1607 301.797 33.563L303.234 32.1714ZM301.207 30.7797C300.43 30.4389 299.597 30.2734 298.719 30.2734V32.2734C299.34 32.2734 299.898 32.3893 300.403 32.611L301.207 30.7797ZM298.719 30.2734H291.219V32.2734H298.719V30.2734ZM290.219 31.2734V44.7734H292.219V31.2734H290.219ZM291.219 45.7734H298.719V43.7734H291.219V45.7734ZM298.719 45.7734C299.597 45.7734 300.43 45.608 301.207 45.2672L300.403 43.4359C299.898 43.6576 299.34 43.7734 298.719 43.7734V45.7734ZM301.199 45.2707C301.967 44.9415 302.645 44.4884 303.223 43.9102L301.809 42.496C301.418 42.8866 300.955 43.1991 300.411 43.4324L301.199 45.2707ZM303.234 43.8989C303.801 43.3131 304.251 42.6431 304.58 41.8942L302.748 41.0902C302.515 41.6225 302.199 42.0932 301.797 42.5073L303.234 43.8989ZM304.583 41.8861C304.92 41.0991 305.086 40.2613 305.086 39.3828H303.086C303.086 40.0043 302.97 40.5727 302.745 41.0983L304.583 41.8861ZM305.086 39.3828V36.6641H303.086V39.3828H305.086ZM320.961 54.6172L321.958 54.5419L321.951 54.4415L321.923 54.3446L320.961 54.6172ZM321.055 55.8594L320.058 55.9346H322.052L321.055 55.8594ZM321.148 54.6172L320.187 54.3438L320.159 54.4411L320.151 54.5419L321.148 54.6172ZM328.602 28.3906V27.3906H327.846L327.64 28.1173L328.602 28.3906ZM331.719 28.3906L332.678 28.6729L333.055 27.3906H331.719V28.3906ZM321.828 62V63H322.576L322.787 62.2823L321.828 62ZM320.234 62L319.275 62.2811L319.485 63H320.234V62ZM310.391 28.3906V27.3906H309.056L309.431 28.6717L310.391 28.3906ZM313.531 28.3906L314.493 28.1181L314.287 27.3906H313.531V28.3906ZM319.964 54.6924L320.058 55.9346L322.052 55.7841L321.958 54.5419L319.964 54.6924ZM322.052 55.9346L322.146 54.6924L320.151 54.5419L320.058 55.7841L322.052 55.9346ZM322.11 54.8905L329.563 28.664L327.64 28.1173L320.187 54.3438L322.11 54.8905ZM328.602 29.3906H331.719V27.3906H328.602V29.3906ZM330.759 28.1083L320.869 61.7177L322.787 62.2823L332.678 28.6729L330.759 28.1083ZM321.828 61H320.234V63H321.828V61ZM321.194 61.7189L311.35 28.1095L309.431 28.6717L319.275 62.2811L321.194 61.7189ZM310.391 29.3906H313.531V27.3906H310.391V29.3906ZM312.569 28.6632L319.999 54.8898L321.923 54.3446L314.493 28.1181L312.569 28.6632ZM336.031 62H335.031V63H336.031V62ZM336.031 28.3906V27.3906H335.031V28.3906H336.031ZM339.055 28.3906H340.055V27.3906H339.055V28.3906ZM339.055 62V63H340.055V62H339.055ZM337.031 62V28.3906H335.031V62H337.031ZM336.031 29.3906H339.055V27.3906H336.031V29.3906ZM338.055 28.3906V62H340.055V28.3906H338.055ZM339.055 61H336.031V63H339.055V61ZM364.531 57.4297L363.615 57.0288L363.61 57.041L364.531 57.4297ZM360.148 61.8359L360.537 62.7574L360.549 62.7521L360.148 61.8359ZM351.312 61.8359L350.912 62.7521L350.92 62.7558L350.929 62.7594L351.312 61.8359ZM346.906 57.4297L345.985 57.8184L345.99 57.8305L346.906 57.4297ZM346.906 32.9609L345.99 32.5601L345.985 32.5722L346.906 32.9609ZM351.312 28.5781L351.701 29.4995L351.708 29.4965L351.312 28.5781ZM360.148 28.5781L359.748 29.4944L359.76 29.4995L360.148 28.5781ZM364.531 32.9609L363.61 33.3497L363.615 33.3618L364.531 32.9609ZM365.188 37.5312L365.341 38.5194L366.188 38.3882V37.5312H365.188ZM362.164 38H361.164V39.167L362.317 38.9882L362.164 38ZM361.742 34.0859L360.823 34.4799L360.827 34.4879L361.742 34.0859ZM358.883 31.2266L358.481 32.1422L358.489 32.1457L358.883 31.2266ZM352.578 31.2266L352.184 30.3074L352.176 30.3109L352.578 31.2266ZM350.867 32.375L350.171 31.6568L350.166 31.6623L350.16 31.6679L350.867 32.375ZM349.719 34.0859L350.634 34.4879L350.638 34.4799L349.719 34.0859ZM349.719 56.3281L348.8 56.7221L348.803 56.7301L349.719 56.3281ZM350.867 58.0391L350.149 58.7349L350.16 58.7463L350.171 58.7573L350.867 58.0391ZM352.578 59.1875L352.176 60.1032L352.184 60.1066L352.578 59.1875ZM358.883 59.1875L358.489 58.2683L358.481 58.2719L358.883 59.1875ZM360.594 58.0391L361.301 58.7462L361.306 58.7406L361.312 58.7349L360.594 58.0391ZM361.742 56.3281L362.658 56.7301L362.661 56.722L361.742 56.3281ZM362.164 52.3906L362.325 51.4036L361.164 51.2147V52.3906H362.164ZM365.188 52.8828H366.188V52.0324L365.348 51.8958L365.188 52.8828ZM364.188 54.2188C364.188 55.2278 363.995 56.1609 363.615 57.0289L365.447 57.8305C365.943 56.6984 366.188 55.491 366.188 54.2188H364.188ZM363.61 57.041C363.237 57.9248 362.723 58.691 362.066 59.3476L363.481 60.7618C364.324 59.9183 364.982 58.9345 365.453 57.8184L363.61 57.041ZM362.066 59.3476C361.407 60.0068 360.637 60.5308 359.748 60.9198L360.549 62.7521C361.66 62.2661 362.64 61.6025 363.481 60.7618L362.066 59.3476ZM359.76 60.9146C358.889 61.2819 357.952 61.4688 356.938 61.4688V63.4688C358.205 63.4688 359.408 63.2337 360.537 62.7573L359.76 60.9146ZM356.938 61.4688H354.547V63.4688H356.938V61.4688ZM354.547 61.4688C353.533 61.4688 352.586 61.2819 351.696 60.9124L350.929 62.7594C352.071 63.2337 353.28 63.4688 354.547 63.4688V61.4688ZM351.713 60.9198C350.824 60.5308 350.054 60.0068 349.395 59.3476L347.98 60.7618C348.821 61.6025 349.801 62.2661 350.912 62.7521L351.713 60.9198ZM349.395 59.3476C348.735 58.6883 348.211 57.918 347.822 57.0289L345.99 57.8305C346.476 58.9414 347.14 59.921 347.98 60.7618L349.395 59.3476ZM347.828 57.041C347.46 56.1702 347.273 55.2328 347.273 54.2188H345.273C345.273 55.486 345.508 56.6892 345.985 57.8184L347.828 57.041ZM347.273 54.2188V36.1719H345.273V54.2188H347.273ZM347.273 36.1719C347.273 35.1578 347.46 34.2204 347.828 33.3496L345.985 32.5722C345.508 33.7015 345.273 34.9047 345.273 36.1719H347.273ZM347.822 33.3618C348.211 32.4726 348.735 31.7023 349.395 31.043L347.98 29.6288C347.14 30.4696 346.476 31.4493 345.99 32.5601L347.822 33.3618ZM349.395 31.043C350.051 30.3865 350.817 29.8724 351.701 29.4995L350.924 27.6568C349.808 28.1276 348.824 28.7854 347.98 29.6288L349.395 31.043ZM351.708 29.4965C352.595 29.1146 353.538 28.9219 354.547 28.9219V26.9219C353.275 26.9219 352.061 27.1667 350.917 27.6597L351.708 29.4965ZM354.547 28.9219H356.938V26.9219H354.547V28.9219ZM356.938 28.9219C357.947 28.9219 358.88 29.1146 359.748 29.4943L360.549 27.662C359.417 27.1667 358.21 26.9219 356.938 26.9219V28.9219ZM359.76 29.4995C360.644 29.8724 361.41 30.3865 362.066 31.043L363.481 29.6288C362.637 28.7854 361.653 28.1276 360.537 27.6568L359.76 29.4995ZM362.066 31.043C362.723 31.6996 363.237 32.4658 363.61 33.3496L365.453 32.5722C364.982 31.4561 364.324 30.4723 363.481 29.6288L362.066 31.043ZM363.615 33.3618C363.995 34.2297 364.188 35.1629 364.188 36.1719H366.188C366.188 34.8996 365.943 33.6922 365.447 32.5601L363.615 33.3618ZM364.188 36.1719V37.5312H366.188V36.1719H364.188ZM365.034 36.5431L362.011 37.0118L362.317 38.9882L365.341 38.5194L365.034 36.5431ZM363.164 38V36.1719H361.164V38H363.164ZM363.164 36.1719C363.164 35.2936 362.999 34.4602 362.658 33.6839L360.827 34.4879C361.048 34.9929 361.164 35.5502 361.164 36.1719H363.164ZM362.661 33.692C362.332 32.9239 361.879 32.246 361.301 31.6679L359.887 33.0821C360.277 33.4727 360.59 33.9355 360.823 34.4799L362.661 33.692ZM361.301 31.6679C360.723 31.0898 360.045 30.6366 359.277 30.3074L358.489 32.1457C359.033 32.379 359.496 32.6915 359.887 33.0821L361.301 31.6679ZM359.285 30.3109C358.509 29.9701 357.675 29.8047 356.797 29.8047V31.8047C357.419 31.8047 357.976 31.9205 358.481 32.1422L359.285 30.3109ZM356.797 29.8047H354.688V31.8047H356.797V29.8047ZM354.688 29.8047C353.809 29.8047 352.971 29.9701 352.184 30.3074L352.972 32.1457C353.498 31.9205 354.066 31.8047 354.688 31.8047V29.8047ZM352.176 30.3109C351.427 30.6397 350.757 31.0892 350.171 31.6568L351.563 33.0932C351.977 32.692 352.448 32.3759 352.98 32.1422L352.176 30.3109ZM350.16 31.6679C349.582 32.246 349.129 32.9239 348.8 33.692L350.638 34.4799C350.871 33.9355 351.184 33.4727 351.574 33.0821L350.16 31.6679ZM348.803 33.6839C348.462 34.4602 348.297 35.2936 348.297 36.1719H350.297C350.297 35.5502 350.413 34.9929 350.634 34.4879L348.803 33.6839ZM348.297 36.1719V54.2188H350.297V36.1719H348.297ZM348.297 54.2188C348.297 55.0972 348.462 55.9351 348.8 56.722L350.638 55.9342C350.413 55.4087 350.297 54.8403 350.297 54.2188H348.297ZM348.803 56.7301C349.132 57.4791 349.581 58.149 350.149 58.7349L351.585 57.3433C351.184 56.9291 350.868 56.4584 350.634 55.9261L348.803 56.7301ZM350.171 58.7573C350.757 59.3249 351.427 59.7743 352.176 60.1031L352.98 58.2719C352.448 58.0382 351.977 57.722 351.563 57.3208L350.171 58.7573ZM352.184 60.1066C352.971 60.4439 353.809 60.6094 354.688 60.6094V58.6094C354.066 58.6094 353.498 58.4936 352.972 58.2684L352.184 60.1066ZM354.688 60.6094H356.797V58.6094H354.688V60.6094ZM356.797 60.6094C357.675 60.6094 358.509 60.4439 359.285 60.1031L358.481 58.2719C357.976 58.4936 357.419 58.6094 356.797 58.6094V60.6094ZM359.277 60.1066C360.045 59.7774 360.723 59.3243 361.301 58.7462L359.887 57.332C359.496 57.7226 359.033 58.0351 358.489 58.2684L359.277 60.1066ZM361.312 58.7349C361.88 58.149 362.329 57.4791 362.658 56.7301L360.827 55.9261C360.593 56.4584 360.277 56.9291 359.876 57.3433L361.312 58.7349ZM362.661 56.722C362.999 55.9351 363.164 55.0972 363.164 54.2188H361.164C361.164 54.8403 361.048 55.4087 360.823 55.9342L362.661 56.722ZM363.164 54.2188V52.3906H361.164V54.2188H363.164ZM362.003 53.3776L365.027 53.8698L365.348 51.8958L362.325 51.4036L362.003 53.3776ZM364.188 52.8828V54.2188H366.188V52.8828H364.188ZM371.938 62H370.938V63H371.938V62ZM371.938 28.3906V27.3906H370.938V28.3906H371.938ZM390.852 28.3906H391.852V27.3906H390.852V28.3906ZM390.852 31.2734V32.2734H391.852V31.2734H390.852ZM374.961 31.2734V30.2734H373.961V31.2734H374.961ZM374.961 43.7656H373.961V44.7656H374.961V43.7656ZM387.828 43.7656H388.828V42.7656H387.828V43.7656ZM387.828 46.6484V47.6484H388.828V46.6484H387.828ZM374.961 46.6484V45.6484H373.961V46.6484H374.961ZM374.961 59.1172H373.961V60.1172H374.961V59.1172ZM390.852 59.1172H391.852V58.1172H390.852V59.1172ZM390.852 62V63H391.852V62H390.852ZM372.938 62V28.3906H370.938V62H372.938ZM371.938 29.3906H390.852V27.3906H371.938V29.3906ZM389.852 28.3906V31.2734H391.852V28.3906H389.852ZM390.852 30.2734H374.961V32.2734H390.852V30.2734ZM373.961 31.2734V43.7656H375.961V31.2734H373.961ZM374.961 44.7656H387.828V42.7656H374.961V44.7656ZM386.828 43.7656V46.6484H388.828V43.7656H386.828ZM387.828 45.6484H374.961V47.6484H387.828V45.6484ZM373.961 46.6484V59.1172H375.961V46.6484H373.961ZM374.961 60.1172H390.852V58.1172H374.961V60.1172ZM389.852 59.1172V62H391.852V59.1172H389.852ZM390.852 61H371.938V63H390.852V61Z" fill="#010A43"/>
</svg>
