<svg width="96" height="50" viewBox="0 0 96 50" fill="none" xmlns="http://www.w3.org/2000/svg">
<path d="M70.5312 38.2812C74.1406 40.0625 78.0078 40.9531 82.1328 40.9531C87.2109 40.9531 89.75 38.6406 89.75 34.0156C89.75 32.5156 89.3438 31.3047 88.5312 30.3828C87.7344 29.4453 86.2734 28.7109 84.1484 28.1797L77.2578 26.4453C71.9922 25.1172 69.3594 22.3047 69.3594 18.0078C69.3594 14.7109 70.4922 12.2656 72.7578 10.6719C75.0234 9.0625 78.1562 8.25781 82.1562 8.25781C84.25 8.25781 86.2109 8.48438 88.0391 8.9375C89.8672 9.39062 91.3984 10 92.6328 10.7656L91.4609 14.0703C90.4141 13.4922 89.0234 12.9766 87.2891 12.5234C85.5703 12.0703 83.8281 11.8438 82.0625 11.8438C76.4062 11.8438 73.5781 13.8047 73.5781 17.7266C73.5781 19.0547 74.0078 20.125 74.8672 20.9375C75.7422 21.7344 77.0469 22.3438 78.7812 22.7656L85.3672 24.3594C88.1797 25.0312 90.3125 26.1094 91.7656 27.5938C93.2188 29.0625 93.9453 31.1562 93.9453 33.875C93.9453 37.4062 92.8594 40.0703 90.6875 41.8672C88.5312 43.6484 85.5938 44.5391 81.875 44.5391C79.0938 44.5391 76.6172 44.2578 74.4453 43.6953C72.2891 43.1172 70.5781 42.4375 69.3125 41.6562L70.5312 38.2812Z" fill="#155263"/>
<path d="M70.5312 38.2812L71.4163 36.4878L69.41 35.4976L68.6501 37.602L70.5312 38.2812ZM88.5312 30.3828L87.0074 31.6781L87.019 31.6918L87.0308 31.7052L88.5312 30.3828ZM84.1484 28.1797L83.6603 30.1192L83.6634 30.12L84.1484 28.1797ZM77.2578 26.4453L76.7687 28.3846L76.7696 28.3848L77.2578 26.4453ZM72.7578 10.6719L73.9085 12.3077L73.916 12.3024L72.7578 10.6719ZM92.6328 10.7656L94.5178 11.4341L95.0564 9.91536L93.687 9.06601L92.6328 10.7656ZM91.4609 14.0703L90.4941 15.8211L92.558 16.9608L93.3459 14.7387L91.4609 14.0703ZM87.2891 12.5234L86.7792 14.4574L86.7835 14.4585L87.2891 12.5234ZM74.8672 20.9375L73.4932 22.3908L73.5067 22.4036L73.5205 22.4162L74.8672 20.9375ZM78.7812 22.7656L78.3085 24.709L78.3108 24.7095L78.7812 22.7656ZM85.3672 24.3594L84.8968 26.3033L84.9025 26.3046L85.3672 24.3594ZM91.7656 27.5938L90.3364 28.9929L90.3439 29.0004L91.7656 27.5938ZM90.6875 41.8672L91.9613 43.4091L91.9624 43.4082L90.6875 41.8672ZM74.4453 43.6953L73.9274 45.6271L73.9356 45.6293L73.9439 45.6314L74.4453 43.6953ZM69.3125 41.6562L67.4314 40.977L66.8797 42.5048L68.262 43.3581L69.3125 41.6562ZM69.6462 40.0747C73.5378 41.9953 77.7087 42.9531 82.1328 42.9531V38.9531C78.3069 38.9531 74.7435 38.1297 71.4163 36.4878L69.6462 40.0747ZM82.1328 42.9531C84.9363 42.9531 87.4122 42.3188 89.1924 40.6974C91.0081 39.0437 91.75 36.6871 91.75 34.0156H87.75C87.75 35.9692 87.2224 37.0813 86.499 37.7401C85.7402 38.4312 84.4074 38.9531 82.1328 38.9531V42.9531ZM91.75 34.0156C91.75 32.141 91.2333 30.4238 90.0317 29.0604L87.0308 31.7052C87.4542 32.1856 87.75 32.8903 87.75 34.0156H91.75ZM90.0551 29.0875C88.8478 27.6672 86.8857 26.8024 84.6335 26.2394L83.6634 30.12C85.6612 30.6194 86.6209 31.2235 87.0074 31.6781L90.0551 29.0875ZM84.6366 26.2402L77.746 24.5058L76.7696 28.3848L83.6603 30.1192L84.6366 26.2402ZM77.7469 24.506C75.3402 23.899 73.7617 23.0068 72.7941 21.973C71.8656 20.9812 71.3594 19.7121 71.3594 18.0078H67.3594C67.3594 20.6004 68.1695 22.886 69.8739 24.7066C71.539 26.4854 73.9098 27.6635 76.7687 28.3846L77.7469 24.506ZM71.3594 18.0078C71.3594 15.2207 72.2812 13.4524 73.9085 12.3077L71.6071 9.03607C68.7031 11.0789 67.3594 14.2011 67.3594 18.0078H71.3594ZM73.916 12.3024C75.7242 11.018 78.3963 10.2578 82.1562 10.2578V6.25781C77.9162 6.25781 74.3227 7.10702 71.5996 9.04137L73.916 12.3024ZM82.1562 10.2578C84.1056 10.2578 85.9036 10.4687 87.5579 10.8788L88.5202 6.99624C86.5183 6.50004 84.3944 6.25781 82.1562 6.25781V10.2578ZM87.5579 10.8788C89.2403 11.2958 90.5651 11.8366 91.5786 12.4652L93.687 9.06601C92.2318 8.1634 90.4941 7.48549 88.5202 6.99624L87.5579 10.8788ZM90.7478 10.0972L89.5759 13.4019L93.3459 14.7387L94.5178 11.4341L90.7478 10.0972ZM92.4278 12.3195C91.1825 11.6318 89.6184 11.0649 87.7946 10.5884L86.7835 14.4585C88.4285 14.8883 89.6456 15.3525 90.4941 15.8211L92.4278 12.3195ZM87.7989 10.5895C85.9149 10.0928 84.0014 9.84375 82.0625 9.84375V13.8438C83.6549 13.8438 85.2257 14.0478 86.7792 14.4574L87.7989 10.5895ZM82.0625 9.84375C79.065 9.84375 76.4615 10.3522 74.5596 11.6709C72.525 13.0817 71.5781 15.2159 71.5781 17.7266H75.5781C75.5781 16.3153 76.0454 15.5082 76.8388 14.958C77.765 14.3158 79.4038 13.8438 82.0625 13.8438V9.84375ZM71.5781 17.7266C71.5781 19.53 72.1831 21.1522 73.4932 22.3908L76.2412 19.4842C75.8325 19.0978 75.5781 18.5793 75.5781 17.7266H71.5781ZM73.5205 22.4162C74.7378 23.5248 76.4007 24.2449 78.3085 24.709L79.254 20.8223C77.693 20.4426 76.7465 19.944 76.2138 19.4588L73.5205 22.4162ZM78.3108 24.7095L84.8968 26.3033L85.8376 22.4155L79.2517 20.8217L78.3108 24.7095ZM84.9025 26.3046C87.4863 26.9219 89.2311 27.8637 90.3364 28.9928L93.1948 26.1947C91.3939 24.355 88.873 23.1406 85.8319 22.4141L84.9025 26.3046ZM90.3439 29.0004C91.3208 29.9878 91.9453 31.5106 91.9453 33.875H95.9453C95.9453 30.8019 95.1167 28.1372 93.1874 26.1871L90.3439 29.0004ZM91.9453 33.875C91.9453 36.9743 91.0122 39.0028 89.4126 40.3262L91.9624 43.4082C94.7065 41.1379 95.9453 37.8382 95.9453 33.875H91.9453ZM89.4137 40.3253C87.7191 41.7252 85.283 42.5391 81.875 42.5391V46.5391C85.9045 46.5391 89.3434 45.5717 91.9613 43.4091L89.4137 40.3253ZM81.875 42.5391C79.2243 42.5391 76.9213 42.2706 74.9468 41.7592L73.9439 45.6314C76.3131 46.245 78.9632 46.5391 81.875 46.5391V42.5391ZM74.9633 41.7635C72.9107 41.2132 71.4027 40.5961 70.363 39.9544L68.262 43.3581C69.7536 44.2789 71.6674 45.0212 73.9274 45.6271L74.9633 41.7635ZM71.1936 42.3355L72.4124 38.9605L68.6501 37.602L67.4314 40.977L71.1936 42.3355Z" fill="#155263"/>
<path d="M52.2891 12.3125C49.6797 12.3125 47.4297 12.9453 45.5391 14.2109C43.6641 15.4766 42.2656 17.1797 41.3438 19.3203C40.4219 21.4609 39.9609 23.9219 39.9609 26.7031C39.9609 28.7812 40.2109 30.6797 40.7109 32.3984C41.2109 34.1016 41.9609 35.6016 42.9609 36.8984C43.9609 38.1797 45.2578 39.1797 46.8516 39.8984C48.4609 40.6016 50.3047 40.9531 52.3828 40.9531C55.0547 40.9531 57.8203 40.2578 60.6797 38.8672L61.3594 42.3125C59.0312 43.7812 55.8828 44.5156 51.9141 44.5156C49.3047 44.5156 46.9609 44.0859 44.8828 43.2266C42.8203 42.3516 41.1094 41.125 39.75 39.5469C38.4062 37.9531 37.3828 36.0625 36.6797 33.875C35.9766 31.6719 35.625 29.2266 35.625 26.5391C35.625 23.9453 36.0078 21.5547 36.7734 19.3672C37.5391 17.1797 38.6172 15.3047 40.0078 13.7422C41.4141 12.1641 43.1641 10.9375 45.2578 10.0625C47.3516 9.1875 49.6797 8.75 52.2422 8.75C56.1328 8.75 59.4141 9.60938 62.0859 11.3281L60.4922 14.6328C57.9297 13.0859 55.1953 12.3125 52.2891 12.3125Z" fill="#FF6F3C"/>
<path d="M45.5391 14.2109L44.4265 12.5489L44.4201 12.5532L45.5391 14.2109ZM40.7109 32.3984L38.7905 32.9571L38.7919 32.9618L40.7109 32.3984ZM42.9609 36.8984L41.3771 38.1197L41.3843 38.129L42.9609 36.8984ZM46.8516 39.8984L46.0293 41.7216L46.0401 41.7264L46.0509 41.7312L46.8516 39.8984ZM60.6797 38.8672L62.6419 38.4801L62.1394 35.9333L59.805 37.0686L60.6797 38.8672ZM61.3594 42.3125L62.4265 44.004L63.5872 43.2718L63.3216 41.9254L61.3594 42.3125ZM44.8828 43.2266L44.1017 45.0677L44.1101 45.0713L44.1185 45.0748L44.8828 43.2266ZM39.75 39.5469L38.221 40.8361L38.2278 40.8442L38.2347 40.8522L39.75 39.5469ZM36.6797 33.875L34.7744 34.4831L34.7756 34.487L36.6797 33.875ZM40.0078 13.7422L38.5146 12.4116L38.5138 12.4125L40.0078 13.7422ZM62.0859 11.3281L63.8874 12.1969L64.6559 10.6033L63.1679 9.64609L62.0859 11.3281ZM60.4922 14.6328L59.4586 16.345L61.3393 17.4804L62.2936 15.5016L60.4922 14.6328ZM52.2891 10.3125C49.3434 10.3125 46.6928 11.0318 44.4265 12.549L46.6516 15.8729C48.1666 14.8588 50.0159 14.3125 52.2891 14.3125V10.3125ZM44.4201 12.5532C42.2178 14.0398 40.5753 16.0482 39.5068 18.5292L43.1807 20.1114C43.9559 18.3112 45.1103 16.9133 46.658 15.8686L44.4201 12.5532ZM39.5068 18.5292C38.4587 20.9632 37.9609 23.7015 37.9609 26.7031H41.9609C41.9609 24.1423 42.3851 21.9587 43.1807 20.1114L39.5068 18.5292ZM37.9609 26.7031C37.9609 28.9406 38.2301 31.0304 38.7905 32.9571L42.6313 31.8398C42.1918 30.329 41.9609 28.6219 41.9609 26.7031H37.9609ZM38.7919 32.9618C39.356 34.8831 40.2132 36.6103 41.3771 38.1197L44.5448 35.6772C43.7086 34.5928 43.0659 33.3201 42.6299 31.8351L38.7919 32.9618ZM41.3843 38.129C42.5989 39.6852 44.1627 40.8798 46.0293 41.7216L47.6738 38.0753C46.3529 37.4796 45.323 36.6742 44.5376 35.6679L41.3843 38.129ZM46.0509 41.7312C47.9547 42.5629 50.0789 42.9531 52.3828 42.9531V38.9531C50.5305 38.9531 48.9672 38.6402 47.6523 38.0657L46.0509 41.7312ZM52.3828 42.9531C55.41 42.9531 58.4738 42.164 61.5544 40.6658L59.805 37.0686C57.1668 38.3516 54.6993 38.9531 52.3828 38.9531V42.9531ZM58.7175 39.2543L59.3972 42.6996L63.3216 41.9254L62.6419 38.4801L58.7175 39.2543ZM60.2922 40.621C58.3951 41.8178 55.6632 42.5156 51.9141 42.5156V46.5156C56.1024 46.5156 59.6674 45.7447 62.4265 44.004L60.2922 40.621ZM51.9141 42.5156C49.5254 42.5156 47.4472 42.1228 45.6471 41.3784L44.1185 45.0748C46.4746 46.0491 49.084 46.5156 51.9141 46.5156V42.5156ZM45.6639 41.3854C43.8622 40.621 42.4094 39.5698 41.2653 38.2416L38.2347 40.8522C39.8093 42.6802 41.7784 44.0821 44.1017 45.0677L45.6639 41.3854ZM41.279 38.2577C40.1196 36.8825 39.2153 35.2279 38.5837 33.263L34.7756 34.487C35.5503 36.8971 36.6929 39.0237 38.221 40.8361L41.279 38.2577ZM38.585 33.2669C37.9538 31.2893 37.625 29.0529 37.625 26.5391H33.625C33.625 29.4002 33.9993 32.0545 34.7744 34.4831L38.585 33.2669ZM37.625 26.5391C37.625 24.1437 37.9781 21.9793 38.6612 20.0279L34.8857 18.7065C34.0375 21.13 33.625 23.7469 33.625 26.5391H37.625ZM38.6612 20.0279C39.3498 18.0603 40.3027 16.4192 41.5018 15.0718L38.5138 12.4125C36.9317 14.1902 35.7283 16.2991 34.8857 18.7065L38.6612 20.0279ZM41.501 15.0727C42.6937 13.7342 44.1907 12.6761 46.029 11.9078L44.4866 8.21716C42.1374 9.19892 40.1344 10.5939 38.5146 12.4116L41.501 15.0727ZM46.029 11.9078C47.8488 11.1473 49.9103 10.75 52.2422 10.75V6.75C49.449 6.75 46.8543 7.22769 44.4866 8.21716L46.029 11.9078ZM52.2422 10.75C55.8357 10.75 58.7206 11.5413 61.0039 13.0102L63.1679 9.64609C60.1075 7.6774 56.4299 6.75 52.2422 6.75V10.75ZM60.2845 10.4593L58.6907 13.764L62.2936 15.5016L63.8874 12.1969L60.2845 10.4593ZM61.5258 12.9206C58.6612 11.1914 55.5709 10.3125 52.2891 10.3125V14.3125C54.8197 14.3125 57.1982 14.9805 59.4586 16.345L61.5258 12.9206Z" fill="#FF6F3C"/>
<path d="M6.59375 12.5703V24.2891C7.23438 24.2891 8.55469 24.3047 10.5547 24.3359C12.5703 24.3672 14.125 24.3828 15.2188 24.3828C18.2031 24.3828 20.2812 23.8906 21.4531 22.9062C22.625 21.9062 23.2109 20.3281 23.2109 18.1719C23.2109 16.2812 22.6484 14.875 21.5234 13.9531C20.3984 13.0313 18.5156 12.5703 15.875 12.5703H6.59375ZM28.8125 44H24.125L19.3438 33.125C18.0469 30.2031 17.2188 28.4453 16.8594 27.8516C15.7188 27.9297 14.3672 27.9688 12.8047 27.9688L6.59375 27.7812V44H2.44531V8.9375H13.5312C14.8125 8.9375 15.9453 8.96875 16.9297 9.03125C17.9141 9.09375 18.8906 9.21094 19.8594 9.38281C20.8438 9.53906 21.6953 9.76562 22.4141 10.0625C23.1328 10.3438 23.8047 10.7188 24.4297 11.1875C25.0547 11.6406 25.5547 12.1875 25.9297 12.8281C26.3203 13.4687 26.625 14.2344 26.8438 15.125C27.0625 16 27.1719 16.9922 27.1719 18.1016C27.1719 20.2891 26.5938 22.1719 25.4375 23.75C24.2969 25.3281 22.6719 26.4219 20.5625 27.0312C20.5625 27.0625 20.7188 27.3438 21.0312 27.875C21.3438 28.4062 21.7109 29.0625 22.1328 29.8438C22.5703 30.6094 22.9062 31.25 23.1406 31.7656L28.8125 44Z" fill="#FFC93C"/>
<path d="M6.59375 12.5703V10.5703H4.59375V12.5703H6.59375ZM6.59375 24.2891H4.59375V26.2891H6.59375V24.2891ZM10.5547 24.3359L10.5234 26.3357L10.5237 26.3357L10.5547 24.3359ZM21.4531 22.9062L22.7395 24.4377L22.7455 24.4327L22.7514 24.4276L21.4531 22.9062ZM28.8125 44V46H31.9442L30.627 43.1588L28.8125 44ZM24.125 44L22.2941 44.8049L22.8195 46H24.125V44ZM19.3438 33.125L21.1746 32.32L21.1718 32.3136L19.3438 33.125ZM16.8594 27.8516L18.5704 26.816L17.9391 25.7729L16.7227 25.8562L16.8594 27.8516ZM12.8047 27.9688L12.7443 29.9678L12.7745 29.9688H12.8047V27.9688ZM6.59375 27.7812L6.6541 25.7822L4.59375 25.72V27.7812H6.59375ZM6.59375 44V46H8.59375V44H6.59375ZM2.44531 44H0.445312V46H2.44531V44ZM2.44531 8.9375V6.9375H0.445312V8.9375H2.44531ZM19.8594 9.38281L19.51 11.3521L19.5279 11.3552L19.5458 11.3581L19.8594 9.38281ZM22.4141 10.0625L21.6505 11.911L21.6678 11.9182L21.6853 11.925L22.4141 10.0625ZM24.4297 11.1875L23.2297 12.7875L23.2426 12.7972L23.2558 12.8067L24.4297 11.1875ZM25.9297 12.8281L24.2037 13.8385L24.2127 13.854L24.2221 13.8693L25.9297 12.8281ZM26.8438 15.125L24.9015 15.6021L24.9035 15.6101L26.8438 15.125ZM25.4375 23.75L23.8241 22.5679L23.8166 22.5784L25.4375 23.75ZM20.5625 27.0312L20.0074 25.1098L18.5625 25.5272V27.0312H20.5625ZM22.1328 29.8438L20.373 30.794L20.3844 30.8152L20.3963 30.836L22.1328 29.8438ZM23.1406 31.7656L21.3199 32.5932L21.323 32.6L21.3261 32.6068L23.1406 31.7656ZM4.59375 12.5703V24.2891H8.59375V12.5703H4.59375ZM6.59375 26.2891C7.21599 26.2891 8.52037 26.3044 10.5234 26.3357L10.5859 22.3362C8.589 22.305 7.25276 22.2891 6.59375 22.2891V26.2891ZM10.5237 26.3357C12.5426 26.367 14.1094 26.3828 15.2188 26.3828V22.3828C14.1406 22.3828 12.598 22.3674 10.5857 22.3362L10.5237 26.3357ZM15.2188 26.3828C18.29 26.3828 20.9948 25.9032 22.7395 24.4377L20.1667 21.3748C19.5677 21.878 18.1163 22.3828 15.2188 22.3828V26.3828ZM22.7514 24.4276C24.5254 22.9138 25.2109 20.6699 25.2109 18.1719H21.2109C21.2109 19.9864 20.7246 20.8987 20.1549 21.3849L22.7514 24.4276ZM25.2109 18.1719C25.2109 15.8755 24.5111 13.8156 22.7911 12.4062L20.2558 15.5001C20.7858 15.9344 21.2109 16.687 21.2109 18.1719H25.2109ZM22.7911 12.4062C21.1156 11.0332 18.6441 10.5703 15.875 10.5703V14.5703C18.3871 14.5703 19.6813 15.0293 20.2558 15.5001L22.7911 12.4062ZM15.875 10.5703H6.59375V14.5703H15.875V10.5703ZM28.8125 42H24.125V46H28.8125V42ZM25.9559 43.1951L21.1746 32.3201L17.5129 33.9299L22.2941 44.8049L25.9559 43.1951ZM21.1718 32.3136C19.899 29.446 19.0117 27.5451 18.5704 26.816L15.1484 28.8872C15.4258 29.3456 16.1948 30.9602 17.5157 33.9364L21.1718 32.3136ZM16.7227 25.8562C15.6406 25.9304 14.3368 25.9688 12.8047 25.9688V29.9688C14.3975 29.9688 15.7969 29.929 16.996 29.8469L16.7227 25.8562ZM12.865 25.9697L6.6541 25.7822L6.5334 29.7803L12.7443 29.9678L12.865 25.9697ZM4.59375 27.7812V44H8.59375V27.7812H4.59375ZM6.59375 42H2.44531V46H6.59375V42ZM4.44531 44V8.9375H0.445313V44H4.44531ZM2.44531 10.9375H13.5312V6.9375H2.44531V10.9375ZM13.5312 10.9375C14.7819 10.9375 15.871 10.9681 16.803 11.0272L17.0564 7.03527C16.0196 6.96944 14.8431 6.9375 13.5312 6.9375V10.9375ZM16.803 11.0272C17.7129 11.085 18.6151 11.1933 19.51 11.3521L20.2088 7.41357C19.1662 7.22859 18.1153 7.1025 17.0564 7.03527L16.803 11.0272ZM19.5458 11.3581C20.4167 11.4963 21.1101 11.6878 21.6505 11.911L23.1776 8.21398C22.2805 7.84344 21.2708 7.58181 20.1729 7.40754L19.5458 11.3581ZM21.6853 11.925C22.2337 12.1396 22.7474 12.4258 23.2297 12.7875L25.6297 9.5875C24.862 9.01172 24.0319 8.54789 23.1429 8.20001L21.6853 11.925ZM23.2558 12.8067C23.6657 13.1039 23.9742 13.4464 24.2037 13.8385L27.6557 11.8178C27.1352 10.9286 26.4437 10.1773 25.6036 9.56828L23.2558 12.8067ZM24.2221 13.8693C24.4854 14.3012 24.7211 14.8679 24.9015 15.602L28.786 14.648C28.5289 13.6009 28.1552 12.6363 27.6373 11.7869L24.2221 13.8693ZM24.9035 15.6101C25.0747 16.295 25.1719 17.1198 25.1719 18.1016H29.1719C29.1719 16.8645 29.0503 15.705 28.784 14.6399L24.9035 15.6101ZM25.1719 18.1016C25.1719 19.9166 24.6998 21.3729 23.8242 22.568L27.0508 24.932C28.4877 22.9709 29.1719 20.6615 29.1719 18.1016H25.1719ZM23.8166 22.5784C22.9707 23.7488 21.7454 24.6077 20.0074 25.1098L21.1176 28.9527C23.5983 28.236 25.6231 26.9075 27.0584 24.9216L23.8166 22.5784ZM18.5625 27.0312C18.5625 27.3553 18.6449 27.603 18.6554 27.6366C18.6819 27.7216 18.709 27.7886 18.7237 27.8239C18.7543 27.8975 18.785 27.96 18.8029 27.996C18.842 28.074 18.8878 28.1585 18.9314 28.2369C19.0217 28.3995 19.1489 28.6195 19.3074 28.889L22.7551 26.861C22.6011 26.5992 22.4939 26.413 22.428 26.2943C22.4121 26.2656 22.4001 26.2436 22.3914 26.2274C22.3822 26.2104 22.3794 26.2045 22.3807 26.2071C22.3814 26.2087 22.3848 26.2155 22.3899 26.2263C22.3945 26.2362 22.4041 26.257 22.416 26.2855C22.4258 26.309 22.4492 26.3663 22.4733 26.4435C22.4856 26.4828 22.5042 26.5466 22.5209 26.627C22.5295 26.6683 22.5393 26.7219 22.5472 26.7848C22.5549 26.8464 22.5625 26.9308 22.5625 27.0312H18.5625ZM19.3074 28.889C19.6034 29.3924 19.9582 30.0258 20.373 30.794L23.8926 28.8935C23.4637 28.0992 23.0841 27.4201 22.7551 26.861L19.3074 28.889ZM20.3963 30.836C20.818 31.574 21.121 32.1556 21.3199 32.5932L24.9614 30.938C24.6915 30.3444 24.3226 29.6447 23.8693 28.8515L20.3963 30.836ZM21.3261 32.6068L26.998 44.8412L30.627 43.1588L24.9551 30.9244L21.3261 32.6068Z" fill="#FFC93C"/>
</svg>
