<svg width="95" height="58" viewBox="0 0 95 58" fill="none" xmlns="http://www.w3.org/2000/svg">
<path d="M27.1016 45L17.9844 30.6562H13.8359V45H10.8125V11.3906H21.4766C22.6172 11.3906 23.6875 11.6094 24.6875 12.0469C25.6875 12.4688 26.5625 13.0547 27.3125 13.8047C28.0625 14.5547 28.6484 15.4375 29.0703 16.4531C29.5078 17.4531 29.7266 18.5234 29.7266 19.6641V22.3828C29.7266 23.5234 29.5078 24.6016 29.0703 25.6172C28.6484 26.6172 28.0625 27.4922 27.3125 28.2422C26.5625 28.9922 25.6875 29.5859 24.6875 30.0234C23.6875 30.4453 22.6172 30.6562 21.4766 30.6562L30.5938 45H27.1016ZM26.7031 19.6641C26.7031 18.9141 26.5625 18.2188 26.2812 17.5781C26 16.9219 25.6172 16.3516 25.1328 15.8672C24.6484 15.3672 24.0781 14.9766 23.4219 14.6953C22.7812 14.4141 22.0859 14.2734 21.3359 14.2734H13.8359V27.7734H21.3359C22.0859 27.7734 22.7812 27.6328 23.4219 27.3516C24.0781 27.0703 24.6484 26.6875 25.1328 26.2031C25.6172 25.7031 26 25.1328 26.2812 24.4922C26.5625 23.8359 26.7031 23.1328 26.7031 22.3828V19.6641Z" fill="#FF3300"/>
<path d="M27.1016 45L26.2576 45.5364L26.5523 46H27.1016V45ZM17.9844 30.6562L18.8283 30.1198L18.5337 29.6562H17.9844V30.6562ZM13.8359 30.6562V29.6562H12.8359V30.6562H13.8359ZM13.8359 45V46H14.8359V45H13.8359ZM10.8125 45H9.8125V46H10.8125V45ZM10.8125 11.3906V10.3906H9.8125V11.3906H10.8125ZM24.6875 12.0469L24.2866 12.9631L24.2988 12.9682L24.6875 12.0469ZM29.0703 16.4531L28.1468 16.8367L28.1504 16.8454L28.1542 16.8539L29.0703 16.4531ZM29.0703 25.6172L28.1519 25.2216L28.1489 25.2285L29.0703 25.6172ZM24.6875 30.0234L25.0762 30.9449L25.0883 30.9396L24.6875 30.0234ZM21.4766 30.6562V29.6562H19.656L20.6326 31.1927L21.4766 30.6562ZM30.5938 45V46H32.4143L31.4377 44.4636L30.5938 45ZM26.2812 17.5781L25.3621 17.9721L25.3656 17.9801L26.2812 17.5781ZM25.1328 15.8672L24.4146 16.563L24.4201 16.5687L24.4257 16.5743L25.1328 15.8672ZM23.4219 14.6953L23.0199 15.611L23.028 15.6145L23.4219 14.6953ZM13.8359 14.2734V13.2734H12.8359V14.2734H13.8359ZM13.8359 27.7734H12.8359V28.7734H13.8359V27.7734ZM23.4219 27.3516L23.0279 26.4324L23.0199 26.4359L23.4219 27.3516ZM25.1328 26.2031L25.8399 26.9102L25.8455 26.9046L25.8511 26.8989L25.1328 26.2031ZM26.2812 24.4922L27.1969 24.8942L27.2004 24.8861L26.2812 24.4922ZM27.9455 44.4636L18.8283 30.1198L17.1404 31.1927L26.2576 45.5364L27.9455 44.4636ZM17.9844 29.6562H13.8359V31.6562H17.9844V29.6562ZM12.8359 30.6562V45H14.8359V30.6562H12.8359ZM13.8359 44H10.8125V46H13.8359V44ZM11.8125 45V11.3906H9.8125V45H11.8125ZM10.8125 12.3906H21.4766V10.3906H10.8125V12.3906ZM21.4766 12.3906C22.4856 12.3906 23.4188 12.5833 24.2867 12.963L25.0883 11.1307C23.9562 10.6354 22.7488 10.3906 21.4766 10.3906V12.3906ZM24.2988 12.9682C25.1827 13.3411 25.9488 13.8552 26.6054 14.5118L28.0196 13.0976C27.1762 12.2541 26.1923 11.5964 25.0762 11.1255L24.2988 12.9682ZM26.6054 14.5118C27.2594 15.1658 27.7733 15.9375 28.1468 16.8367L29.9938 16.0695C29.5236 14.9375 28.8656 13.9436 28.0196 13.0976L26.6054 14.5118ZM28.1542 16.8539C28.5339 17.7219 28.7266 18.6551 28.7266 19.6641H30.7266C30.7266 18.3918 30.4818 17.1844 29.9865 16.0523L28.1542 16.8539ZM28.7266 19.6641V22.3828H30.7266V19.6641H28.7266ZM28.7266 22.3828C28.7266 23.3918 28.5339 24.3349 28.1519 25.2216L29.9887 26.0128C30.4818 24.8683 30.7266 23.6551 30.7266 22.3828H28.7266ZM28.1489 25.2285C27.7761 26.1123 27.2619 26.8785 26.6054 27.5351L28.0196 28.9493C28.8631 28.1058 29.5208 27.122 29.9917 26.0059L28.1489 25.2285ZM26.6054 27.5351C25.9461 28.1943 25.1758 28.7183 24.2867 29.1073L25.0883 30.9396C26.1992 30.4536 27.1789 29.79 28.0196 28.9493L26.6054 27.5351ZM24.2988 29.1021C23.428 29.4694 22.4906 29.6562 21.4766 29.6562V31.6562C22.7438 31.6562 23.947 31.4212 25.0762 30.9448L24.2988 29.1021ZM20.6326 31.1927L29.7498 45.5364L31.4377 44.4636L22.3205 30.1198L20.6326 31.1927ZM30.5938 44H27.1016V46H30.5938V44ZM27.7031 19.6641C27.7031 18.7858 27.5377 17.9524 27.1969 17.1761L25.3656 17.9801C25.5873 18.4851 25.7031 19.0423 25.7031 19.6641H27.7031ZM27.2004 17.1842C26.8712 16.4161 26.418 15.7382 25.8399 15.1601L24.4257 16.5743C24.8163 16.9649 25.1288 17.4277 25.3621 17.972L27.2004 17.1842ZM25.8511 15.1714C25.2721 14.5737 24.5907 14.1083 23.8158 13.7762L23.028 15.6145C23.5656 15.8449 24.0248 16.1607 24.4146 16.563L25.8511 15.1714ZM23.8239 13.7797C23.0476 13.4389 22.2142 13.2734 21.3359 13.2734V15.2734C21.9577 15.2734 22.5149 15.3893 23.0199 15.611L23.8239 13.7797ZM21.3359 13.2734H13.8359V15.2734H21.3359V13.2734ZM12.8359 14.2734V27.7734H14.8359V14.2734H12.8359ZM13.8359 28.7734H21.3359V26.7734H13.8359V28.7734ZM21.3359 28.7734C22.2142 28.7734 23.0476 28.608 23.8239 28.2672L23.0199 26.4359C22.5149 26.6576 21.9577 26.7734 21.3359 26.7734V28.7734ZM23.8158 28.2707C24.5839 27.9415 25.2618 27.4884 25.8399 26.9102L24.4257 25.496C24.0351 25.8866 23.5723 26.1991 23.028 26.4324L23.8158 28.2707ZM25.8511 26.8989C26.4186 26.3131 26.8681 25.6431 27.1969 24.8942L25.3656 24.0902C25.1319 24.6225 24.8158 25.0932 24.4146 25.5073L25.8511 26.8989ZM27.2004 24.8861C27.5377 24.0991 27.7031 23.2613 27.7031 22.3828H25.7031C25.7031 23.0043 25.5873 23.5727 25.3621 24.0983L27.2004 24.8861ZM27.7031 22.3828V19.6641H25.7031V22.3828H27.7031Z" fill="#FF3300"/>
<path d="M59.6797 37.2188C59.6797 38.3594 59.4609 39.4297 59.0234 40.4297C58.6016 41.4297 58.0156 42.3047 57.2656 43.0547C56.5156 43.8047 55.6406 44.3984 54.6406 44.8359C53.6406 45.2578 52.5703 45.4688 51.4297 45.4688H49.0391C47.8984 45.4688 46.8203 45.2578 45.8047 44.8359C44.8047 44.3984 43.9297 43.8047 43.1797 43.0547C42.4297 42.3047 41.8359 41.4297 41.3984 40.4297C40.9766 39.4297 40.7656 38.3594 40.7656 37.2188V19.1719C40.7656 18.0312 40.9766 16.9609 41.3984 15.9609C41.8359 14.9609 42.4297 14.0859 43.1797 13.3359C43.9297 12.5859 44.8047 12 45.8047 11.5781C46.8203 11.1406 47.8984 10.9219 49.0391 10.9219H51.4297C52.5703 10.9219 53.6406 11.1406 54.6406 11.5781C55.6406 12 56.5156 12.5859 57.2656 13.3359C58.0156 14.0859 58.6016 14.9609 59.0234 15.9609C59.4609 16.9609 59.6797 18.0312 59.6797 19.1719V20.5312L56.6562 21V19.1719C56.6562 18.4219 56.5156 17.7266 56.2344 17.0859C55.9531 16.4297 55.5703 15.8594 55.0859 15.375C54.6016 14.8906 54.0312 14.5078 53.375 14.2266C52.7344 13.9453 52.0391 13.8047 51.2891 13.8047H49.1797C48.4297 13.8047 47.7266 13.9453 47.0703 14.2266C46.4297 14.5078 45.8594 14.8906 45.3594 15.375C44.875 15.8594 44.4922 16.4297 44.2109 17.0859C43.9297 17.7266 43.7891 18.4219 43.7891 19.1719V37.2188C43.7891 37.9688 43.9297 38.6719 44.2109 39.3281C44.4922 39.9688 44.875 40.5391 45.3594 41.0391C45.8594 41.5234 46.4297 41.9062 47.0703 42.1875C47.7266 42.4688 48.4297 42.6094 49.1797 42.6094H51.2891C52.0391 42.6094 52.7344 42.4688 53.375 42.1875C54.0312 41.9062 54.6016 41.5234 55.0859 41.0391C55.5703 40.5391 55.9531 39.9688 56.2344 39.3281C56.5156 38.6719 56.6562 37.9688 56.6562 37.2188V35.3906L59.6797 35.8828V37.2188Z" fill="#010A43"/>
<path d="M59.0234 40.4297L58.1072 40.0288L58.1021 40.041L59.0234 40.4297ZM54.6406 44.8359L55.0294 45.7574L55.0414 45.7521L54.6406 44.8359ZM45.8047 44.8359L45.4039 45.7521L45.4124 45.7558L45.4211 45.7594L45.8047 44.8359ZM41.3984 40.4297L40.477 40.8184L40.4823 40.8305L41.3984 40.4297ZM41.3984 15.9609L40.4822 15.5601L40.4771 15.5722L41.3984 15.9609ZM45.8047 11.5781L46.1934 12.4995L46.2003 12.4965L45.8047 11.5781ZM54.6406 11.5781L54.2398 12.4944L54.2519 12.4995L54.6406 11.5781ZM59.0234 15.9609L58.102 16.3497L58.1073 16.3618L59.0234 15.9609ZM59.6797 20.5312L59.8329 21.5194L60.6797 21.3882V20.5312H59.6797ZM56.6562 21H55.6562V22.167L56.8095 21.9882L56.6562 21ZM56.2344 17.0859L55.3152 17.4799L55.3187 17.4879L56.2344 17.0859ZM53.375 14.2266L52.973 15.1422L52.9811 15.1457L53.375 14.2266ZM47.0703 14.2266L46.6764 13.3074L46.6683 13.3109L47.0703 14.2266ZM45.3594 15.375L44.6636 14.6568L44.6579 14.6623L44.6523 14.6679L45.3594 15.375ZM44.2109 17.0859L45.1266 17.4879L45.1301 17.4799L44.2109 17.0859ZM44.2109 39.3281L43.2918 39.7221L43.2953 39.7301L44.2109 39.3281ZM45.3594 41.0391L44.6411 41.7349L44.6522 41.7463L44.6636 41.7573L45.3594 41.0391ZM47.0703 42.1875L46.6683 43.1032L46.6764 43.1066L47.0703 42.1875ZM53.375 42.1875L52.9811 41.2683L52.973 41.2719L53.375 42.1875ZM55.0859 41.0391L55.793 41.7462L55.7987 41.7406L55.8042 41.7349L55.0859 41.0391ZM56.2344 39.3281L57.1501 39.7301L57.1535 39.722L56.2344 39.3281ZM56.6562 35.3906L56.8169 34.4036L55.6562 34.2147V35.3906H56.6562ZM59.6797 35.8828H60.6797V35.0324L59.8404 34.8958L59.6797 35.8828ZM58.6797 37.2188C58.6797 38.2278 58.487 39.1609 58.1073 40.0289L59.9396 40.8305C60.4349 39.6984 60.6797 38.491 60.6797 37.2188H58.6797ZM58.1021 40.041C57.7292 40.9248 57.2151 41.691 56.5585 42.3476L57.9727 43.7618C58.8162 42.9183 59.4739 41.9345 59.9448 40.8184L58.1021 40.041ZM56.5585 42.3476C55.8993 43.0068 55.129 43.5308 54.2398 43.9198L55.0414 45.7521C56.1523 45.2661 57.132 44.6025 57.9727 43.7618L56.5585 42.3476ZM54.2519 43.9146C53.3812 44.2819 52.4437 44.4688 51.4297 44.4688V46.4688C52.6969 46.4688 53.9001 46.2337 55.0293 45.7573L54.2519 43.9146ZM51.4297 44.4688H49.0391V46.4688H51.4297V44.4688ZM49.0391 44.4688C48.0251 44.4688 47.0778 44.2819 46.1883 43.9124L45.4211 45.7594C46.5628 46.2337 47.7718 46.4688 49.0391 46.4688V44.4688ZM46.2055 43.9198C45.3164 43.5308 44.546 43.0068 43.8868 42.3476L42.4726 43.7618C43.3133 44.6025 44.293 45.2661 45.4039 45.7521L46.2055 43.9198ZM43.8868 42.3476C43.2275 41.6883 42.7036 40.918 42.3146 40.0289L40.4823 40.8305C40.9683 41.9414 41.6318 42.921 42.4726 43.7618L43.8868 42.3476ZM42.3198 40.041C41.9524 39.1702 41.7656 38.2328 41.7656 37.2188H39.7656C39.7656 38.486 40.0007 39.6892 40.4771 40.8184L42.3198 40.041ZM41.7656 37.2188V19.1719H39.7656V37.2188H41.7656ZM41.7656 19.1719C41.7656 18.1578 41.9524 17.2204 42.3198 16.3496L40.4771 15.5722C40.0007 16.7015 39.7656 17.9047 39.7656 19.1719H41.7656ZM42.3146 16.3618C42.7036 15.4726 43.2275 14.7023 43.8868 14.043L42.4726 12.6288C41.6318 13.4696 40.9683 14.4493 40.4823 15.5601L42.3146 16.3618ZM43.8868 14.043C44.5433 13.3865 45.3095 12.8724 46.1934 12.4995L45.416 10.6568C44.2998 11.1276 43.316 11.7854 42.4726 12.6288L43.8868 14.043ZM46.2003 12.4965C47.087 12.1146 48.0301 11.9219 49.0391 11.9219V9.92188C47.7668 9.92188 46.5536 10.1667 45.4091 10.6597L46.2003 12.4965ZM49.0391 11.9219H51.4297V9.92188H49.0391V11.9219ZM51.4297 11.9219C52.4387 11.9219 53.3719 12.1146 54.2398 12.4943L55.0414 10.662C53.9094 10.1667 52.7019 9.92188 51.4297 9.92188V11.9219ZM54.2519 12.4995C55.1358 12.8724 55.902 13.3865 56.5585 14.043L57.9727 12.6288C57.1293 11.7854 56.1455 11.1276 55.0293 10.6568L54.2519 12.4995ZM56.5585 14.043C57.2151 14.6996 57.7292 15.4658 58.1021 16.3496L59.9448 15.5722C59.4739 14.4561 58.8162 13.4723 57.9727 12.6288L56.5585 14.043ZM58.1073 16.3618C58.487 17.2297 58.6797 18.1629 58.6797 19.1719H60.6797C60.6797 17.8996 60.4349 16.6922 59.9396 15.5601L58.1073 16.3618ZM58.6797 19.1719V20.5312H60.6797V19.1719H58.6797ZM59.5265 19.5431L56.503 20.0118L56.8095 21.9882L59.8329 21.5194L59.5265 19.5431ZM57.6562 21V19.1719H55.6562V21H57.6562ZM57.6562 19.1719C57.6562 18.2936 57.4908 17.4602 57.15 16.6839L55.3187 17.4879C55.5404 17.9929 55.6562 18.5502 55.6562 19.1719H57.6562ZM57.1535 16.692C56.8243 15.9239 56.3712 15.246 55.793 14.6679L54.3788 16.0821C54.7695 16.4727 55.0819 16.9355 55.3152 17.4799L57.1535 16.692ZM55.793 14.6679C55.2149 14.0898 54.5371 13.6366 53.7689 13.3074L52.9811 15.1457C53.5254 15.379 53.9882 15.6915 54.3788 16.0821L55.793 14.6679ZM53.777 13.3109C53.0007 12.9701 52.1673 12.8047 51.2891 12.8047V14.8047C51.9108 14.8047 52.468 14.9205 52.973 15.1422L53.777 13.3109ZM51.2891 12.8047H49.1797V14.8047H51.2891V12.8047ZM49.1797 12.8047C48.3012 12.8047 47.4634 12.9701 46.6764 13.3074L47.4642 15.1457C47.9898 14.9205 48.5582 14.8047 49.1797 14.8047V12.8047ZM46.6683 13.3109C45.9194 13.6397 45.2494 14.0892 44.6636 14.6568L46.0552 16.0932C46.4693 15.692 46.94 15.3759 47.4723 15.1422L46.6683 13.3109ZM44.6523 14.6679C44.0741 15.246 43.621 15.9239 43.2918 16.692L45.1301 17.4799C45.3634 16.9355 45.6759 16.4727 46.0665 16.0821L44.6523 14.6679ZM43.2953 16.6839C42.9545 17.4602 42.7891 18.2936 42.7891 19.1719H44.7891C44.7891 18.5502 44.9049 17.9929 45.1266 17.4879L43.2953 16.6839ZM42.7891 19.1719V37.2188H44.7891V19.1719H42.7891ZM42.7891 37.2188C42.7891 38.0972 42.9545 38.9351 43.2918 39.722L45.1301 38.9342C44.9049 38.4087 44.7891 37.8403 44.7891 37.2188H42.7891ZM43.2953 39.7301C43.6241 40.4791 44.0736 41.149 44.6411 41.7349L46.0776 40.3433C45.6764 39.9291 45.3603 39.4584 45.1266 38.9261L43.2953 39.7301ZM44.6636 41.7573C45.2494 42.3249 45.9194 42.7743 46.6683 43.1031L47.4723 41.2719C46.94 41.0382 46.4693 40.722 46.0552 40.3208L44.6636 41.7573ZM46.6764 43.1066C47.4634 43.4439 48.3012 43.6094 49.1797 43.6094V41.6094C48.5582 41.6094 47.9898 41.4936 47.4642 41.2684L46.6764 43.1066ZM49.1797 43.6094H51.2891V41.6094H49.1797V43.6094ZM51.2891 43.6094C52.1673 43.6094 53.0007 43.4439 53.777 43.1031L52.973 41.2719C52.468 41.4936 51.9108 41.6094 51.2891 41.6094V43.6094ZM53.7689 43.1066C54.5371 42.7774 55.2149 42.3243 55.793 41.7462L54.3788 40.332C53.9882 40.7226 53.5254 41.0351 52.9811 41.2684L53.7689 43.1066ZM55.8042 41.7349C56.3717 41.149 56.8212 40.4791 57.15 39.7301L55.3187 38.9261C55.085 39.4584 54.7689 39.9291 54.3677 40.3433L55.8042 41.7349ZM57.1535 39.722C57.4908 38.9351 57.6562 38.0972 57.6562 37.2188H55.6562C55.6562 37.8403 55.5405 38.4087 55.3152 38.9342L57.1535 39.722ZM57.6562 37.2188V35.3906H55.6562V37.2188H57.6562ZM56.4956 36.3776L59.519 36.8698L59.8404 34.8958L56.8169 34.4036L56.4956 36.3776ZM58.6797 35.8828V37.2188H60.6797V35.8828H58.6797Z" fill="#010A43"/>
<path d="M89.2969 39.2188C89.2969 40.3594 89.0625 41.4297 88.5938 42.4297C88.1406 43.4297 87.5234 44.3047 86.7422 45.0547C85.9766 45.8047 85.0781 46.3984 84.0469 46.8359C83.0312 47.2578 81.9531 47.4688 80.8125 47.4688H78.3984C77.2578 47.4688 76.1719 47.2578 75.1406 46.8359C74.125 46.3984 73.2266 45.8047 72.4453 45.0547C71.6797 44.3047 71.0625 43.4297 70.5938 42.4297C70.1406 41.4297 69.9141 40.3594 69.9141 39.2188V37.8828L72.9375 37.3906V39.2188C72.9375 39.9688 73.0859 40.6719 73.3828 41.3281C73.6953 41.9688 74.1094 42.5391 74.625 43.0391C75.1406 43.5234 75.7344 43.9062 76.4062 44.1875C77.0938 44.4688 77.8125 44.6094 78.5625 44.6094H80.6719C81.4219 44.6094 82.1328 44.4688 82.8047 44.1875C83.4766 43.9062 84.0703 43.5234 84.5859 43.0391C85.1016 42.5391 85.5078 41.9688 85.8047 41.3281C86.1172 40.6719 86.2734 39.9688 86.2734 39.2188V38.2109C86.2734 37.0547 86.0469 36.0938 85.5938 35.3281C85.1406 34.5625 84.5391 33.9141 83.7891 33.3828C83.0391 32.8359 82.1875 32.375 81.2344 32C80.2969 31.625 79.3281 31.25 78.3281 30.875C77.3281 30.5 76.3516 30.0859 75.3984 29.6328C74.4609 29.1797 73.6172 28.6172 72.8672 27.9453C72.1172 27.2578 71.5156 26.4219 71.0625 25.4375C70.6094 24.4531 70.3828 23.2422 70.3828 21.8047V21.1719C70.3828 20.0312 70.5938 18.9609 71.0156 17.9609C71.4531 16.9609 72.0469 16.0859 72.7969 15.3359C73.5469 14.5859 74.4219 14 75.4219 13.5781C76.4375 13.1406 77.5156 12.9219 78.6562 12.9219H80.8125C81.9531 12.9219 83.0234 13.1406 84.0234 13.5781C85.0234 14 85.8984 14.5859 86.6484 15.3359C87.3984 16.0859 87.9844 16.9609 88.4062 17.9609C88.8438 18.9609 89.0625 20.0312 89.0625 21.1719V22.0391L86.0391 22.5312V21.1719C86.0391 20.4219 85.8984 19.7266 85.6172 19.0859C85.3359 18.4297 84.9531 17.8594 84.4688 17.375C83.9844 16.8906 83.4141 16.5078 82.7578 16.2266C82.1172 15.9453 81.4219 15.8047 80.6719 15.8047H78.7969C78.0469 15.8047 77.3438 15.9453 76.6875 16.2266C76.0469 16.5078 75.4766 16.8906 74.9766 17.375C74.4922 17.8594 74.1094 18.4297 73.8281 19.0859C73.5469 19.7266 73.4062 20.4219 73.4062 21.1719V21.8047C73.4062 22.8828 73.6328 23.7891 74.0859 24.5234C74.5391 25.2578 75.1406 25.8906 75.8906 26.4219C76.6406 26.9375 77.4844 27.3906 78.4219 27.7812C79.375 28.1562 80.3516 28.5469 81.3516 28.9531C82.3516 29.3438 83.3203 29.7812 84.2578 30.2656C85.2109 30.7344 86.0625 31.3203 86.8125 32.0234C87.5625 32.7109 88.1641 33.5547 88.6172 34.5547C89.0703 35.5547 89.2969 36.7734 89.2969 38.2109V39.2188Z" fill="#010A43"/>
<path d="M88.5938 42.4297L87.6882 42.0052L87.6829 42.017L88.5938 42.4297ZM86.7422 45.0547L86.0496 44.3333L86.0424 44.3403L86.7422 45.0547ZM84.0469 46.8359L84.4305 47.7595L84.4374 47.7565L84.0469 46.8359ZM75.1406 46.8359L74.745 47.7544L74.7535 47.758L74.762 47.7615L75.1406 46.8359ZM72.4453 45.0547L71.7455 45.7691L71.7528 45.7761L72.4453 45.0547ZM70.5938 42.4297L69.6828 42.8425L69.6883 42.8541L70.5938 42.4297ZM69.9141 37.8828L69.7534 36.8958L68.9141 37.0324V37.8828H69.9141ZM72.9375 37.3906H73.9375V36.2147L72.7768 36.4036L72.9375 37.3906ZM73.3828 41.3281L72.4717 41.7403L72.4777 41.7535L72.484 41.7665L73.3828 41.3281ZM74.625 43.0391L73.9289 43.757L73.9345 43.7625L73.9403 43.7679L74.625 43.0391ZM76.4062 44.1875L76.0201 45.11L76.0276 45.113L76.4062 44.1875ZM84.5859 43.0391L85.2706 43.7679L85.2764 43.7625L85.2821 43.757L84.5859 43.0391ZM85.8047 41.3281L84.9018 40.8982L84.8974 40.9077L85.8047 41.3281ZM83.7891 33.3828L83.1998 34.1909L83.211 34.1988L83.7891 33.3828ZM81.2344 32L80.863 32.9285L80.8683 32.9306L81.2344 32ZM75.3984 29.6328L74.9633 30.5332L74.9691 30.5359L75.3984 29.6328ZM72.8672 27.9453L72.1914 28.6825L72.1999 28.6901L72.8672 27.9453ZM71.0156 17.9609L70.0994 17.5601L70.0943 17.5722L71.0156 17.9609ZM75.4219 13.5781L75.8106 14.4995L75.8175 14.4965L75.4219 13.5781ZM84.0234 13.5781L83.6226 14.4944L83.6347 14.4995L84.0234 13.5781ZM88.4062 17.9609L87.4848 18.3497L87.4901 18.3618L88.4062 17.9609ZM89.0625 22.0391L89.2232 23.0261L90.0625 22.8894V22.0391H89.0625ZM86.0391 22.5312H85.0391V23.7072L86.1997 23.5183L86.0391 22.5312ZM85.6172 19.0859L84.698 19.4799L84.7015 19.4879L85.6172 19.0859ZM82.7578 16.2266L82.3558 17.1422L82.3639 17.1457L82.7578 16.2266ZM76.6875 16.2266L76.2936 15.3074L76.2855 15.3109L76.6875 16.2266ZM74.9766 17.375L74.2808 16.6568L74.2751 16.6623L74.2695 16.6679L74.9766 17.375ZM73.8281 19.0859L74.7438 19.4879L74.7473 19.4799L73.8281 19.0859ZM75.8906 26.4219L75.3126 27.238L75.3241 27.2459L75.8906 26.4219ZM78.4219 27.7812L78.0373 28.7043L78.0465 28.7082L78.0558 28.7118L78.4219 27.7812ZM81.3516 28.9531L80.9752 29.8797L80.9877 29.8846L81.3516 28.9531ZM84.2578 30.2656L83.7988 31.1541L83.8076 31.1586L83.8165 31.163L84.2578 30.2656ZM86.8125 32.0234L86.1285 32.753L86.1368 32.7606L86.8125 32.0234ZM88.2969 39.2188C88.2969 40.2176 88.0927 41.1425 87.6883 42.0053L89.4992 42.8541C90.0323 41.7169 90.2969 40.5011 90.2969 39.2188H88.2969ZM87.6829 42.017C87.2815 42.9028 86.7379 43.6726 86.0497 44.3333L87.4347 45.7761C88.309 44.9368 88.9997 43.9566 89.5046 42.8424L87.6829 42.017ZM86.0424 44.3403C85.3701 44.9989 84.5778 45.5244 83.6563 45.9154L84.4374 47.7565C85.5785 47.2724 86.5831 46.6104 87.442 45.769L86.0424 44.3403ZM83.6633 45.9124C82.7738 46.2819 81.8265 46.4688 80.8125 46.4688V48.4688C82.0798 48.4688 83.2887 48.2337 84.4305 47.7594L83.6633 45.9124ZM80.8125 46.4688H78.3984V48.4688H80.8125V46.4688ZM78.3984 46.4688C77.3845 46.4688 76.4274 46.2819 75.5193 45.9104L74.762 47.7615C75.9163 48.2337 77.1311 48.4688 78.3984 48.4688V46.4688ZM75.5362 45.9175C74.6282 45.5264 73.8309 44.9986 73.1378 44.3333L71.7528 45.7761C72.6222 46.6108 73.6218 47.2705 74.745 47.7544L75.5362 45.9175ZM73.1451 44.3403C72.4674 43.6765 71.9188 42.9005 71.4992 42.0053L69.6883 42.8541C70.2062 43.9589 70.892 44.9329 71.7455 45.769L73.1451 44.3403ZM71.5046 42.017C71.1125 41.1517 70.9141 40.2227 70.9141 39.2188H68.9141C68.9141 40.496 69.1687 41.7077 69.6829 42.8424L71.5046 42.017ZM70.9141 39.2188V37.8828H68.9141V39.2188H70.9141ZM70.0747 38.8698L73.0982 38.3776L72.7768 36.4036L69.7534 36.8958L70.0747 38.8698ZM71.9375 37.3906V39.2188H73.9375V37.3906H71.9375ZM71.9375 39.2188C71.9375 40.1049 72.1138 40.9492 72.4717 41.7403L74.2939 40.916C74.0581 40.3946 73.9375 39.8326 73.9375 39.2188H71.9375ZM72.484 41.7665C72.8478 42.5122 73.3306 43.1769 73.9289 43.757L75.3211 42.3212C74.8881 41.9012 74.5429 41.4253 74.2816 40.8897L72.484 41.7665ZM73.9403 43.7679C74.5457 44.3366 75.2413 44.7839 76.0201 45.1099L76.7924 43.2651C76.2275 43.0286 75.7356 42.7103 75.3097 42.3102L73.9403 43.7679ZM76.0276 45.113C76.8365 45.4439 77.6839 45.6094 78.5625 45.6094V43.6094C77.9411 43.6094 77.351 43.4936 76.7849 43.262L76.0276 45.113ZM78.5625 45.6094H80.6719V43.6094H78.5625V45.6094ZM80.6719 45.6094C81.5504 45.6094 82.393 45.4439 83.1908 45.1099L82.4185 43.2651C81.8726 43.4936 81.2933 43.6094 80.6719 43.6094V45.6094ZM83.1908 45.1099C83.9697 44.7839 84.6653 44.3366 85.2706 43.7679L83.9013 42.3102C83.4754 42.7103 82.9835 43.0286 82.4185 43.2651L83.1908 45.1099ZM85.2821 43.757C85.8842 43.1731 86.3627 42.5024 86.712 41.7486L84.8974 40.9077C84.653 41.4351 84.3189 41.905 83.8898 42.3212L85.2821 43.757ZM86.7075 41.7581C87.0861 40.9632 87.2734 40.1126 87.2734 39.2188H85.2734C85.2734 39.8249 85.1483 40.3806 84.9018 40.8982L86.7075 41.7581ZM87.2734 39.2188V38.2109H85.2734V39.2188H87.2734ZM87.2734 38.2109C87.2734 36.928 87.0222 35.7783 86.4543 34.8188L84.7332 35.8374C85.0716 36.4092 85.2734 37.1814 85.2734 38.2109H87.2734ZM86.4543 34.8188C85.9272 33.9282 85.2279 33.1765 84.3671 32.5668L83.211 34.1988C83.8502 34.6516 84.354 35.1968 84.7332 35.8374L86.4543 34.8188ZM84.3782 32.5748C83.5527 31.9729 82.6248 31.4724 81.6005 31.0694L80.8683 32.9306C81.7502 33.2776 82.5254 33.699 83.1999 34.1908L84.3782 32.5748ZM81.6058 31.0715C80.6612 30.6937 79.6856 30.3161 78.6792 29.9387L77.977 31.8113C78.9706 32.1839 79.9326 32.5563 80.863 32.9285L81.6058 31.0715ZM78.6792 29.9387C77.7055 29.5735 76.755 29.1705 75.8278 28.7297L74.9691 30.5359C75.9481 31.0014 76.9508 31.4265 77.977 31.8113L78.6792 29.9387ZM75.8336 28.7325C74.9775 28.3187 74.2124 27.8078 73.5344 27.2005L72.1999 28.6901C73.022 29.4266 73.9444 30.0407 74.9633 30.5332L75.8336 28.7325ZM73.5429 27.2082C72.8972 26.6162 72.3721 25.891 71.9709 25.0194L70.1541 25.8556C70.6592 26.9528 71.3372 27.8994 72.1915 28.6825L73.5429 27.2082ZM71.9709 25.0194C71.5944 24.2016 71.3828 23.1427 71.3828 21.8047H69.3828C69.3828 23.3416 69.6243 24.7047 70.1541 25.8556L71.9709 25.0194ZM71.3828 21.8047V21.1719H69.3828V21.8047H71.3828ZM71.3828 21.1719C71.3828 20.1578 71.5696 19.2204 71.937 18.3496L70.0943 17.5722C69.6179 18.7015 69.3828 19.9047 69.3828 21.1719H71.3828ZM71.9318 18.3618C72.3208 17.4726 72.8447 16.7023 73.504 16.043L72.0898 14.6288C71.249 15.4696 70.5855 16.4493 70.0995 17.5601L71.9318 18.3618ZM73.504 16.043C74.1605 15.3865 74.9267 14.8724 75.8106 14.4995L75.0332 12.6568C73.917 13.1276 72.9332 13.7854 72.0898 14.6288L73.504 16.043ZM75.8175 14.4965C76.7042 14.1146 77.6473 13.9219 78.6562 13.9219V11.9219C77.384 11.9219 76.1708 12.1667 75.0263 12.6597L75.8175 14.4965ZM78.6562 13.9219H80.8125V11.9219H78.6562V13.9219ZM80.8125 13.9219C81.8215 13.9219 82.7547 14.1146 83.6226 14.4943L84.4243 12.662C83.2922 12.1667 82.0847 11.9219 80.8125 11.9219V13.9219ZM83.6347 14.4995C84.5186 14.8724 85.2848 15.3865 85.9413 16.043L87.3555 14.6288C86.5121 13.7854 85.5283 13.1276 84.4121 12.6568L83.6347 14.4995ZM85.9413 16.043C86.5979 16.6996 87.112 17.4658 87.4849 18.3496L89.3276 17.5722C88.8567 16.4561 88.199 15.4723 87.3555 14.6288L85.9413 16.043ZM87.4901 18.3618C87.8698 19.2297 88.0625 20.1629 88.0625 21.1719H90.0625C90.0625 19.8996 89.8177 18.6922 89.3224 17.5601L87.4901 18.3618ZM88.0625 21.1719V22.0391H90.0625V21.1719H88.0625ZM88.9018 21.0521L85.8784 21.5442L86.1997 23.5183L89.2232 23.0261L88.9018 21.0521ZM87.0391 22.5312V21.1719H85.0391V22.5312H87.0391ZM87.0391 21.1719C87.0391 20.2936 86.8736 19.4602 86.5328 18.6839L84.7015 19.4879C84.9232 19.9929 85.0391 20.5502 85.0391 21.1719H87.0391ZM86.5363 18.692C86.2071 17.9239 85.754 17.246 85.1759 16.6679L83.7616 18.0821C84.1523 18.4727 84.4648 18.9355 84.698 19.4799L86.5363 18.692ZM85.1759 16.6679C84.5977 16.0898 83.9199 15.6366 83.1517 15.3074L82.3639 17.1457C82.9082 17.379 83.371 17.6915 83.7616 18.0821L85.1759 16.6679ZM83.1598 15.3109C82.3835 14.9701 81.5502 14.8047 80.6719 14.8047V16.8047C81.2936 16.8047 81.8508 16.9205 82.3558 17.1422L83.1598 15.3109ZM80.6719 14.8047H78.7969V16.8047H80.6719V14.8047ZM78.7969 14.8047C77.9184 14.8047 77.0805 14.9701 76.2936 15.3074L77.0814 17.1457C77.607 16.9205 78.1753 16.8047 78.7969 16.8047V14.8047ZM76.2855 15.3109C75.5366 15.6397 74.8666 16.0892 74.2808 16.6568L75.6724 18.0932C76.0865 17.692 76.5572 17.3759 77.0895 17.1422L76.2855 15.3109ZM74.2695 16.6679C73.6913 17.246 73.2382 17.9239 72.909 18.692L74.7473 19.4799C74.9806 18.9355 75.293 18.4727 75.6837 18.0821L74.2695 16.6679ZM72.9125 18.6839C72.5717 19.4602 72.4062 20.2936 72.4062 21.1719H74.4062C74.4062 20.5502 74.5221 19.9929 74.7438 19.4879L72.9125 18.6839ZM72.4062 21.1719V21.8047H74.4062V21.1719H72.4062ZM72.4062 21.8047C72.4062 23.0223 72.6628 24.1213 73.2349 25.0485L74.937 23.9983C74.6028 23.4568 74.4062 22.7433 74.4062 21.8047H72.4062ZM73.2349 25.0485C73.7631 25.9046 74.4602 26.6341 75.3126 27.2379L76.4686 25.6059C75.821 25.1471 75.315 24.6111 74.937 23.9983L73.2349 25.0485ZM75.3241 27.2459C76.1373 27.805 77.0431 28.2901 78.0373 28.7043L78.8065 26.8582C77.9256 26.4912 77.144 26.07 76.4572 25.5978L75.3241 27.2459ZM78.0558 28.7118C79.0053 29.0854 79.9784 29.4747 80.9752 29.8796L81.7279 28.0267C80.7247 27.6191 79.7447 27.2271 78.788 26.8507L78.0558 28.7118ZM80.9877 29.8846C81.9558 30.2628 82.8928 30.6859 83.7988 31.1541L84.7168 29.3772C83.7478 28.8766 82.7473 28.4247 81.7154 28.0217L80.9877 29.8846ZM83.8165 31.163C84.6839 31.5895 85.4531 32.1197 86.1286 32.753L87.4964 31.2939C86.6719 30.5209 85.738 29.8792 84.6991 29.3683L83.8165 31.163ZM86.1368 32.7606C86.7797 33.3499 87.3044 34.0805 87.7063 34.9674L89.528 34.142C89.0237 33.0289 88.3453 32.072 87.4882 31.2863L86.1368 32.7606ZM87.7063 34.9674C88.0855 35.8042 88.2969 36.8737 88.2969 38.2109H90.2969C90.2969 36.6732 90.0551 35.3051 89.528 34.142L87.7063 34.9674ZM88.2969 38.2109V39.2188H90.2969V38.2109H88.2969Z" fill="#010A43"/>
</svg>
