<svg width="80" height="42" viewBox="0 0 80 42" fill="none" xmlns="http://www.w3.org/2000/svg">
<path d="M51.4318 11.9906C49.549 11.9906 48.0607 12.6195 46.967 13.8773C45.881 15.1273 45.3381 16.8421 45.3381 19.0218C45.3381 21.264 45.8615 22.9984 46.9084 24.225C47.9631 25.4437 49.4631 26.0531 51.4084 26.0531C52.6037 26.0531 53.967 25.8382 55.4982 25.4086V27.1546C54.3107 27.6 52.8459 27.8226 51.1037 27.8226C48.5802 27.8226 46.631 27.057 45.256 25.5257C43.8888 23.9945 43.2052 21.8187 43.2052 18.9984C43.2052 17.2328 43.5334 15.6859 44.1896 14.3578C44.8537 13.0296 45.8068 12.0062 47.049 11.2875C48.299 10.5687 49.7677 10.2093 51.4552 10.2093C53.2521 10.2093 54.8224 10.5375 56.1662 11.1937L55.3224 12.9046C54.0256 12.2953 52.7287 11.9906 51.4318 11.9906ZM75.1388 23.0296C75.1388 24.5375 74.592 25.7132 73.4982 26.557C72.4045 27.4007 70.9201 27.8226 69.0451 27.8226C67.0138 27.8226 65.4513 27.5609 64.3576 27.0375V25.1156C65.0607 25.4125 65.8263 25.6468 66.6545 25.8187C67.4826 25.9906 68.3029 26.0765 69.1154 26.0765C70.4435 26.0765 71.4435 25.8265 72.1154 25.3265C72.7873 24.8187 73.1232 24.1156 73.1232 23.2171C73.1232 22.6234 73.0021 22.139 72.7599 21.764C72.5256 21.3812 72.1271 21.0296 71.5646 20.7093C71.0099 20.389 70.1623 20.0257 69.0217 19.6195C67.4279 19.0492 66.2873 18.3734 65.5998 17.5921C64.9201 16.8109 64.5802 15.7914 64.5802 14.5336C64.5802 13.2132 65.0763 12.1625 66.0685 11.3812C67.0607 10.6 68.3732 10.2093 70.006 10.2093C71.7092 10.2093 73.2756 10.5218 74.7052 11.1468L74.0842 12.8812C72.6701 12.2875 71.2951 11.9906 69.9592 11.9906C68.9045 11.9906 68.0802 12.2171 67.4865 12.6703C66.8927 13.1234 66.5959 13.7523 66.5959 14.557C66.5959 15.1507 66.7052 15.639 66.924 16.0218C67.1427 16.3968 67.5099 16.7445 68.0256 17.0648C68.549 17.3773 69.3459 17.725 70.4162 18.1078C72.2131 18.7484 73.4474 19.4359 74.1193 20.1703C74.799 20.9046 75.1388 21.8578 75.1388 23.0296Z" fill="#010A43"/>
<path d="M46.967 13.8773L46.2124 13.2211L46.2121 13.2215L46.967 13.8773ZM46.9084 24.225L46.1477 24.8742L46.1522 24.8793L46.9084 24.225ZM55.4982 25.4086H56.4982V24.0893L55.228 24.4457L55.4982 25.4086ZM55.4982 27.1546L55.8493 28.091L56.4982 27.8476V27.1546H55.4982ZM45.256 25.5257L44.5101 26.1918L44.512 26.1939L45.256 25.5257ZM44.1896 14.3578L43.2952 13.9106L43.2931 13.9148L44.1896 14.3578ZM47.049 11.2875L46.5505 10.4206L46.5482 10.4219L47.049 11.2875ZM56.1662 11.1937L57.0631 11.636L57.5071 10.7357L56.605 10.2951L56.1662 11.1937ZM55.3224 12.9046L54.8972 13.8097L55.7853 14.227L56.2193 13.3469L55.3224 12.9046ZM51.4318 10.9906C49.3014 10.9906 47.5219 11.7152 46.2124 13.2211L47.7216 14.5335C48.5996 13.5238 49.7966 12.9906 51.4318 12.9906V10.9906ZM46.2121 13.2215C44.9237 14.7044 44.3381 16.6787 44.3381 19.0218H46.3381C46.3381 17.0056 46.8383 15.5502 47.7219 14.5331L46.2121 13.2215ZM44.3381 19.0218C44.3381 21.4096 44.8954 23.4069 46.1478 24.8742L47.669 23.5758C46.8276 22.5899 46.3381 21.1184 46.3381 19.0218H44.3381ZM46.1522 24.8793C47.436 26.3628 49.2385 27.0531 51.4084 27.0531V25.0531C49.6876 25.0531 48.4901 24.5246 47.6645 23.5706L46.1522 24.8793ZM51.4084 27.0531C52.7194 27.0531 54.1763 26.8181 55.7684 26.3714L55.228 24.4457C53.7576 24.8584 52.4879 25.0531 51.4084 25.0531V27.0531ZM54.4982 25.4086V27.1546H56.4982V25.4086H54.4982ZM55.1471 26.2183C54.1052 26.609 52.7677 26.8226 51.1037 26.8226V28.8226C52.9241 28.8226 54.5162 28.5909 55.8493 28.091L55.1471 26.2183ZM51.1037 26.8226C48.7947 26.8226 47.1435 26.131 46.0001 24.8576L44.512 26.1939C46.1186 27.983 48.3658 28.8226 51.1037 28.8226V26.8226ZM46.002 24.8597C44.8509 23.5706 44.2052 21.6654 44.2052 18.9984H42.2052C42.2052 21.9721 42.9268 24.4184 44.5101 26.1918L46.002 24.8597ZM44.2052 18.9984C44.2052 17.3572 44.5098 15.9671 45.0861 14.8008L43.2931 13.9148C42.5569 15.4047 42.2052 17.1083 42.2052 18.9984H44.2052ZM45.0841 14.805C45.6639 13.6454 46.483 12.7703 47.5498 12.153L46.5482 10.4219C45.1306 11.2421 44.0435 12.4139 43.2952 13.9106L45.0841 14.805ZM47.5475 12.1544C48.6217 11.5367 49.9126 11.2093 51.4552 11.2093V9.20934C49.6229 9.20934 47.9763 9.60076 46.5505 10.4206L47.5475 12.1544ZM51.4552 11.2093C53.1303 11.2093 54.5451 11.5149 55.7274 12.0923L56.605 10.2951C55.0998 9.56003 53.3739 9.20934 51.4552 9.20934V11.2093ZM55.2693 10.7514L54.4256 12.4624L56.2193 13.3469L57.0631 11.636L55.2693 10.7514ZM55.7477 11.9996C54.3319 11.3343 52.8905 10.9906 51.4318 10.9906V12.9906C52.5669 12.9906 53.7192 13.2562 54.8972 13.8097L55.7477 11.9996ZM64.3576 27.0375H63.3576V27.6675L63.9259 27.9395L64.3576 27.0375ZM64.3576 25.1156L64.7466 24.1943L63.3576 23.6079V25.1156H64.3576ZM72.1154 25.3265L72.7124 26.1288L72.7184 26.1243L72.1154 25.3265ZM72.7599 21.764L71.9071 22.2862L71.9134 22.2964L71.9199 22.3065L72.7599 21.764ZM71.5646 20.7093L71.0645 21.5753L71.0698 21.5783L71.5646 20.7093ZM69.0217 19.6195L68.6847 20.561L68.6861 20.5615L69.0217 19.6195ZM65.5998 17.5921L64.8453 18.2485L64.8491 18.2528L65.5998 17.5921ZM74.7052 11.1468L75.6467 11.484L75.9616 10.6047L75.1058 10.2306L74.7052 11.1468ZM74.0842 12.8812L73.697 13.8032L74.6699 14.2117L75.0256 13.2184L74.0842 12.8812ZM66.924 16.0218L66.0557 16.518L66.0602 16.5257L66.924 16.0218ZM68.0256 17.0648L67.4979 17.9142L67.5054 17.9189L67.513 17.9234L68.0256 17.0648ZM70.4162 18.1078L70.0794 19.0494L70.0804 19.0497L70.4162 18.1078ZM74.1193 20.1703L73.3815 20.8453L73.3854 20.8495L74.1193 20.1703ZM74.1388 23.0296C74.1388 24.2601 73.711 25.1299 72.8874 25.7652L74.109 27.3488C75.473 26.2966 76.1388 24.8148 76.1388 23.0296H74.1388ZM72.8874 25.7652C72.0219 26.4329 70.7773 26.8226 69.0451 26.8226V28.8226C71.0629 28.8226 72.7871 28.3686 74.109 27.3488L72.8874 25.7652ZM69.0451 26.8226C67.0752 26.8226 65.6866 26.5649 64.7893 26.1354L63.9259 27.9395C65.2161 28.5569 66.9525 28.8226 69.0451 28.8226V26.8226ZM65.3576 27.0375V25.1156H63.3576V27.0375H65.3576ZM63.9686 26.0368C64.7377 26.3615 65.5662 26.6142 66.4513 26.7978L66.8577 24.8396C66.0865 24.6795 65.3838 24.4634 64.7466 24.1943L63.9686 26.0368ZM66.4513 26.7978C67.3435 26.983 68.2319 27.0765 69.1154 27.0765V25.0765C68.3739 25.0765 67.6217 24.9981 66.8577 24.8396L66.4513 26.7978ZM69.1154 27.0765C70.5416 27.0765 71.7932 26.8128 72.7124 26.1288L71.5184 24.5243C71.0939 24.8402 70.3454 25.0765 69.1154 25.0765V27.0765ZM72.7184 26.1243C73.6591 25.4133 74.1232 24.4047 74.1232 23.2171H72.1232C72.1232 23.8265 71.9155 24.2241 71.5124 24.5288L72.7184 26.1243ZM74.1232 23.2171C74.1232 22.493 73.9758 21.8035 73.6 21.2215L71.9199 22.3065C72.0284 22.4746 72.1232 22.7538 72.1232 23.2171H74.1232ZM73.6128 21.2419C73.2598 20.6654 72.7079 20.2096 72.0595 19.8404L71.0698 21.5783C71.5463 21.8497 71.7913 22.097 71.9071 22.2862L73.6128 21.2419ZM72.0647 19.8434C71.4301 19.4769 70.5141 19.0895 69.3572 18.6775L68.6861 20.5615C69.8105 20.962 70.5898 21.3012 71.0645 21.5753L72.0647 19.8434ZM69.3586 18.678C67.8351 18.1328 66.8768 17.5296 66.3505 16.9315L64.8491 18.2528C65.6978 19.2172 67.0207 19.9656 68.6847 20.561L69.3586 18.678ZM66.3542 16.9358C65.8651 16.3736 65.5802 15.6042 65.5802 14.5336H63.5802C63.5802 15.9785 63.9751 17.2482 64.8453 18.2485L66.3542 16.9358ZM65.5802 14.5336C65.5802 13.5036 65.9482 12.7487 66.6872 12.1669L65.4499 10.5955C64.2045 11.5762 63.5802 12.9229 63.5802 14.5336H65.5802ZM66.6872 12.1669C67.4571 11.5606 68.5313 11.2093 70.006 11.2093V9.20934C68.2152 9.20934 66.6643 9.63931 65.4499 10.5955L66.6872 12.1669ZM70.006 11.2093C71.584 11.2093 73.0125 11.4982 74.3047 12.0631L75.1058 10.2306C73.5386 9.54546 71.8343 9.20934 70.006 9.20934V11.2093ZM73.7638 10.8097L73.1427 12.5441L75.0256 13.2184L75.6467 11.484L73.7638 10.8097ZM74.4713 11.9592C72.9527 11.3215 71.4463 10.9906 69.9592 10.9906V12.9906C71.1439 12.9906 72.3875 13.2534 73.697 13.8032L74.4713 11.9592ZM69.9592 10.9906C68.7733 10.9906 67.7068 11.2442 66.8798 11.8753L68.0932 13.4652C68.4536 13.1901 69.0356 12.9906 69.9592 12.9906V10.9906ZM66.8798 11.8753C66.0168 12.5339 65.5959 13.4684 65.5959 14.557H67.5959C67.5959 14.0362 67.7687 13.7129 68.0932 13.4652L66.8798 11.8753ZM65.5959 14.557C65.5959 15.2667 65.7258 15.9406 66.0558 16.518L67.7922 15.5257C67.6847 15.3375 67.5959 15.0348 67.5959 14.557H65.5959ZM66.0602 16.5257C66.3873 17.0864 66.8958 17.5402 67.4979 17.9142L68.5532 16.2154C68.1241 15.9488 67.8982 15.7073 67.7878 15.518L66.0602 16.5257ZM67.513 17.9234C68.1209 18.2864 68.9907 18.66 70.0794 19.0494L70.753 17.1662C69.701 16.79 68.977 16.4682 68.5382 16.2062L67.513 17.9234ZM70.0804 19.0497C71.8401 19.6771 72.8807 20.2979 73.3815 20.8453L74.8571 19.4953C74.0141 18.5739 72.586 17.8197 70.752 17.1658L70.0804 19.0497ZM73.3854 20.8495C73.8652 21.3679 74.1388 22.0637 74.1388 23.0296H76.1388C76.1388 21.6519 75.7328 20.4414 74.8532 19.491L73.3854 20.8495Z" fill="#010A43"/>
<path d="M28.7669 20.875V28H26.7747V10.8672H31.474C33.5755 10.8672 35.1263 11.2695 36.1263 12.0742C37.1341 12.8789 37.638 14.0898 37.638 15.707C37.638 17.9727 36.4896 19.5039 34.1927 20.3008L38.8451 28H36.4896L32.3412 20.875H28.7669ZM28.7669 19.1641H31.4974C32.9037 19.1641 33.9349 18.8867 34.5912 18.332C35.2474 17.7695 35.5755 16.9297 35.5755 15.8125C35.5755 14.6797 35.2396 13.8633 34.5677 13.3633C33.9037 12.8633 32.8333 12.6133 31.3568 12.6133H28.7669V19.1641Z" fill="#FF3300"/>
<path d="M28.7669 20.875V19.875H27.7669V20.875H28.7669ZM28.7669 28V29H29.7669V28H28.7669ZM26.7747 28H25.7747V29H26.7747V28ZM26.7747 10.8672V9.86719H25.7747V10.8672H26.7747ZM36.1263 12.0742L35.4994 12.8533L35.5024 12.8557L36.1263 12.0742ZM34.1927 20.3008L33.8649 19.356L32.6981 19.7609L33.3368 20.818L34.1927 20.3008ZM38.8451 28V29H40.6177L39.7009 27.4828L38.8451 28ZM36.4896 28L35.6254 28.5032L35.9147 29H36.4896V28ZM32.3412 20.875L33.2053 20.3718L32.9161 19.875H32.3412V20.875ZM28.7669 19.1641H27.7669V20.1641H28.7669V19.1641ZM34.5912 18.332L35.2367 19.0958L35.2419 19.0913L34.5912 18.332ZM34.5677 13.3633L33.9662 14.1622L33.9707 14.1655L34.5677 13.3633ZM28.7669 12.6133V11.6133H27.7669V12.6133H28.7669ZM27.7669 20.875V28H29.7669V20.875H27.7669ZM28.7669 27H26.7747V29H28.7669V27ZM27.7747 28V10.8672H25.7747V28H27.7747ZM26.7747 11.8672H31.474V9.86719H26.7747V11.8672ZM31.474 11.8672C33.4819 11.8672 34.7592 12.2577 35.4994 12.8533L36.7532 11.2951C35.4934 10.2814 33.6692 9.86719 31.474 9.86719V11.8672ZM35.5024 12.8557C36.2134 13.4234 36.638 14.3093 36.638 15.707H38.638C38.638 13.8703 38.0548 12.3344 36.7503 11.2928L35.5024 12.8557ZM36.638 15.707C36.638 16.6645 36.3985 17.3923 35.9767 17.9547C35.5506 18.5228 34.8759 19.0053 33.8649 19.356L34.5205 21.2455C35.8064 20.7994 36.8543 20.1178 37.5767 19.1547C38.3034 18.1858 38.638 17.0152 38.638 15.707H36.638ZM33.3368 20.818L37.9892 28.5172L39.7009 27.4828L35.0486 19.7836L33.3368 20.818ZM38.8451 27H36.4896V29H38.8451V27ZM37.3538 27.4968L33.2053 20.3718L31.477 21.3782L35.6254 28.5032L37.3538 27.4968ZM32.3412 19.875H28.7669V21.875H32.3412V19.875ZM28.7669 20.1641H31.4974V18.1641H28.7669V20.1641ZM31.4974 20.1641C33 20.1641 34.316 19.874 35.2367 19.0958L33.9456 17.5683C33.5538 17.8995 32.8074 18.1641 31.4974 18.1641V20.1641ZM35.2419 19.0913C36.181 18.2864 36.5755 17.1301 36.5755 15.8125H34.5755C34.5755 16.7292 34.3138 17.2526 33.9404 17.5728L35.2419 19.0913ZM36.5755 15.8125C36.5755 14.484 36.1733 13.3116 35.1647 12.561L33.9707 14.1655C34.3059 14.4149 34.5755 14.8754 34.5755 15.8125H36.5755ZM35.1692 12.5644C34.2418 11.8661 32.9012 11.6133 31.3568 11.6133V13.6133C32.7655 13.6133 33.5655 13.8604 33.9662 14.1622L35.1692 12.5644ZM31.3568 11.6133H28.7669V13.6133H31.3568V11.6133ZM27.7669 12.6133V19.1641H29.7669V12.6133H27.7669Z" fill="#FF3300"/>
<path d="M10.4394 42C10.3193 42 10.1993 41.9975 10.0784 41.9924C8.18486 41.9099 6.39647 41.1474 5.0427 39.8465C3.68893 38.5456 2.89506 36.826 2.80656 35.0053C2.64797 31.7641 4.69133 28.8431 7.82385 27.7512V23.2748C7.82385 22.9488 8.09811 22.6851 8.43721 22.6851H12.1104C12.4495 22.6851 12.7237 22.9488 12.7237 23.2748C12.7237 23.6009 12.4495 23.8646 12.1104 23.8646H9.05057V28.1775C9.05057 28.4387 8.87182 28.6687 8.61158 28.7428C5.7761 29.55 3.89309 32.1028 4.03241 34.9497C4.184 38.0949 6.86438 40.6705 10.1345 40.8129C11.9088 40.8921 13.5859 40.2871 14.8643 39.1127C16.1436 37.9373 16.8481 36.3542 16.8481 34.654C16.8481 34.2917 16.8157 33.9328 16.7509 33.5806L14.1108 36.1192C12.8858 37.297 10.8722 37.3164 9.62362 36.1613C9.01114 35.5943 8.66941 34.8225 8.66065 33.9893C8.65188 33.1434 9.00238 32.3168 9.62012 31.7229L11.1886 30.2147C11.3726 30.0378 11.4795 29.8179 11.4961 29.5795V25.7139C11.4961 25.3879 11.7704 25.1242 12.1095 25.1242C12.4486 25.1242 12.7228 25.3879 12.7228 25.7139V29.598C12.7228 29.6089 12.7228 29.6199 12.722 29.6309C12.6913 30.1701 12.4609 30.6604 12.056 31.0497L10.4876 32.5578C10.1012 32.9294 9.88211 33.4475 9.88737 33.9791C9.89262 34.4931 10.1012 34.9666 10.4744 35.3129C11.2446 36.0248 12.4871 36.013 13.2433 35.2859L16.6387 32.0211C16.7877 31.8779 17.0041 31.8181 17.2091 31.8636C17.415 31.9091 17.5815 32.0523 17.6516 32.2444C17.932 33.017 18.0748 33.8283 18.0748 34.6557C18.0748 36.6811 17.2354 38.5675 15.7117 39.967C14.2755 41.2847 12.4153 42 10.4394 42Z" fill="#FF3300"/>
<path d="M16.6317 8.67044H3.9045C3.5654 8.67044 3.29114 8.40673 3.29114 8.08068V1.72717C3.29114 1.40112 3.5654 1.13741 3.9045 1.13741C4.2436 1.13741 4.51786 1.40112 4.51786 1.72717V7.49091H16.0184V1.72717C16.0184 1.40112 16.2926 1.13741 16.6317 1.13741C16.9708 1.13741 17.2451 1.40112 17.2451 1.72717V8.08068C17.2451 8.40589 16.9708 8.67044 16.6317 8.67044Z" fill="#010A43"/>
<path d="M17.4957 23.8654H3.04051C2.70141 23.8654 2.42715 23.6017 2.42715 23.2757V21.3968C2.42715 21.0708 2.70141 20.8071 3.04051 20.8071C3.37961 20.8071 3.65387 21.0708 3.65387 21.3968V22.6859H16.8823V19.5424H3.04051C2.70141 19.5424 2.42715 19.2787 2.42715 18.9527C2.42715 18.6266 2.70141 18.3629 3.04051 18.3629H17.4957C17.8348 18.3629 18.109 18.6266 18.109 18.9527V23.2757C18.109 23.6009 17.8348 23.8654 17.4957 23.8654Z" fill="#010A43"/>
<path d="M2.67863 11.9083C2.52179 11.9083 2.36494 11.851 2.2449 11.7356C2.00569 11.5056 2.00569 11.1315 2.2449 10.9015L5.61225 7.66279C5.85146 7.43278 6.2405 7.43278 6.47971 7.66279C6.71892 7.8928 6.71892 8.26688 6.47971 8.49689L3.11237 11.7356C2.99232 11.851 2.83548 11.9083 2.67863 11.9083Z" fill="#010A43"/>
<path d="M1.47908 19.5424C1.32223 19.5424 1.16539 19.4851 1.04534 19.3697C0.806134 19.1397 0.806134 18.7656 1.04534 18.5356L4.61335 15.1048C4.85256 14.8748 5.2416 14.8748 5.48081 15.1048C5.72002 15.3348 5.72002 15.7089 5.48081 15.9389L1.91281 19.3697C1.79364 19.4851 1.63592 19.5424 1.47908 19.5424Z" fill="#010A43"/>
<path d="M6.59716 14.6221C6.55685 14.6221 6.51654 14.6187 6.47711 14.6111C6.43768 14.6035 6.39913 14.5917 6.36233 14.5774C6.32552 14.5622 6.2896 14.5437 6.2563 14.5226C6.22301 14.5016 6.19146 14.4763 6.16342 14.4493C6.13451 14.4224 6.1091 14.3921 6.08719 14.36C6.06441 14.328 6.04601 14.2935 6.03024 14.2581C6.01534 14.2227 6.00307 14.1856 5.99519 14.1477C5.9873 14.1098 5.9838 14.0711 5.9838 14.0323C5.9838 13.9935 5.9873 13.9548 5.99519 13.9169C6.00307 13.8798 6.01534 13.8427 6.03024 13.8065C6.04601 13.7711 6.06441 13.7374 6.08719 13.7054C6.1091 13.6725 6.13451 13.6422 6.16342 13.6152C6.19146 13.5883 6.22301 13.5638 6.2563 13.5419C6.2896 13.5209 6.32552 13.5023 6.36233 13.488C6.39913 13.4729 6.43768 13.4619 6.47711 13.4543C6.55597 13.4392 6.63746 13.4392 6.7172 13.4543C6.75575 13.4619 6.79431 13.4729 6.83199 13.488C6.86879 13.5023 6.90384 13.5209 6.93713 13.5419C6.97131 13.5638 7.00197 13.5883 7.03089 13.6152C7.05893 13.6422 7.08434 13.6725 7.10712 13.7054C7.12903 13.7374 7.1483 13.7711 7.1632 13.8065C7.17897 13.8427 7.19036 13.8798 7.19825 13.9169C7.20614 13.9548 7.21052 13.9935 7.21052 14.0323C7.21052 14.0711 7.20614 14.1098 7.19825 14.1477C7.19036 14.1856 7.17897 14.2227 7.1632 14.2581C7.1483 14.2935 7.12903 14.328 7.10712 14.36C7.08434 14.3921 7.05893 14.4224 7.03089 14.4493C7.00197 14.4763 6.97131 14.5016 6.93713 14.5226C6.90384 14.5437 6.86879 14.5622 6.83199 14.5774C6.79431 14.5917 6.75575 14.6035 6.7172 14.6111C6.67689 14.6187 6.63659 14.6221 6.59716 14.6221Z" fill="#010A43"/>
<path d="M8.08406 13.1923C7.92721 13.1923 7.77037 13.135 7.65032 13.0196C7.41111 12.7896 7.41111 12.4155 7.65032 12.1855L12.353 7.66366C12.5923 7.43365 12.9813 7.43365 13.2205 7.66366C13.4597 7.89367 13.4597 8.26775 13.2205 8.49776L8.51779 13.0196C8.39775 13.135 8.2409 13.1923 8.08406 13.1923Z" fill="#010A43"/>
<path d="M11.3007 16.5801C11.1439 16.5801 10.987 16.5228 10.867 16.4074C10.6278 16.1774 10.6278 15.8033 10.867 15.5733L19.093 7.66366C19.3322 7.43365 19.7213 7.43365 19.9605 7.66366C20.1997 7.89367 20.1997 8.26775 19.9605 8.49776L11.7344 16.4074C11.6144 16.522 11.4575 16.5801 11.3007 16.5801Z" fill="#010A43"/>
<path d="M14.9581 19.5424C14.8013 19.5424 14.6444 19.4851 14.5244 19.3697C14.2852 19.1397 14.2852 18.7656 14.5244 18.5356L19.4891 13.7618C19.7292 13.5318 20.1173 13.5318 20.3566 13.7618C20.5958 13.9919 20.5958 14.3659 20.3566 14.596L15.3918 19.3697C15.2727 19.4851 15.1158 19.5424 14.9581 19.5424Z" fill="#010A43"/>
<path d="M19.9228 19.5424H0.61336C0.27426 19.5424 0 19.2787 0 18.9527V8.08069C0 7.75463 0.27426 7.49092 0.61336 7.49092H19.9228C20.2619 7.49092 20.5362 7.75463 20.5362 8.08069V18.9527C20.5362 19.2787 20.2619 19.5424 19.9228 19.5424ZM1.22672 18.3629H19.3095V8.67046H1.22672V18.3629Z" fill="#FF3300"/>
<rect x="24.9352" y="35.3727" width="50.9021" height="1.7255" rx="0.862748" fill="#010A43"/>
</svg>
